<svg width="19" height="19" viewBox="0 0 19 19" fill="none" xmlns="http://www.w3.org/2000/svg">
<path d="M17.4167 6.74565V3.15148C17.4167 2.03523 16.91 1.58398 15.6513 1.58398H12.4529C11.1942 1.58398 10.6875 2.03523 10.6875 3.15148V6.73773C10.6875 7.8619 11.1942 8.30523 12.4529 8.30523H15.6513C16.91 8.31315 17.4167 7.8619 17.4167 6.74565Z" fill="white"/>
<path d="M17.4167 15.6513V12.4529C17.4167 11.1942 16.91 10.6875 15.6513 10.6875H12.4529C11.1942 10.6875 10.6875 11.1942 10.6875 12.4529V15.6513C10.6875 16.91 11.1942 17.4167 12.4529 17.4167H15.6513C16.91 17.4167 17.4167 16.91 17.4167 15.6513Z" fill="white"/>
<path d="M8.31242 6.74565V3.15148C8.31242 2.03523 7.80575 1.58398 6.547 1.58398H3.34867C2.08992 1.58398 1.58325 2.03523 1.58325 3.15148V6.73773C1.58325 7.8619 2.08992 8.30523 3.34867 8.30523H6.547C7.80575 8.31315 8.31242 7.8619 8.31242 6.74565Z" fill="white"/>
<path d="M8.31242 15.6513V12.4529C8.31242 11.1942 7.80575 10.6875 6.547 10.6875H3.34867C2.08992 10.6875 1.58325 11.1942 1.58325 12.4529V15.6513C1.58325 16.91 2.08992 17.4167 3.34867 17.4167H6.547C7.80575 17.4167 8.31242 16.91 8.31242 15.6513Z" fill="white"/>
</svg>
