<svg width="20" height="20" viewBox="0 0 20 20" fill="none" xmlns="http://www.w3.org/2000/svg">
<g clip-path="url(#clip0_2611_9228)">
<path d="M4.16699 7.09488C4.16699 4.0966 6.77866 1.66602 10.0003 1.66602C13.222 1.66602 15.8337 4.0966 15.8337 7.09488C15.8337 10.0697 13.9719 13.541 11.067 14.7823C10.3899 15.0717 9.61076 15.0717 8.9336 14.7823C6.02879 13.541 4.16699 10.0697 4.16699 7.09488Z" stroke="#A1A1A1" stroke-width="1.5"/>
<path d="M11.6663 7.50065C11.6663 8.42113 10.9201 9.16732 9.99967 9.16732C9.0792 9.16732 8.33301 8.42113 8.33301 7.50065C8.33301 6.58018 9.0792 5.83398 9.99967 5.83398C10.9201 5.83398 11.6663 6.58018 11.6663 7.50065Z" stroke="#A1A1A1" stroke-width="1.5"/>
<path d="M17.4674 12.916C18.0219 13.4181 18.3337 13.984 18.3337 14.5827C18.3337 16.6538 14.6027 18.3327 10.0003 18.3327C5.39795 18.3327 1.66699 16.6538 1.66699 14.5827C1.66699 13.984 1.97876 13.4181 2.53321 12.916" stroke="#A1A1A1" stroke-width="1.5" stroke-linecap="round"/>
</g>
<defs>
<clipPath id="clip0_2611_9228">
<rect width="20" height="20" fill="white"/>
</clipPath>
</defs>
</svg>
