<svg width="39" height="39" viewBox="0 0 39 39" fill="none" xmlns="http://www.w3.org/2000/svg">
<rect x="17.5591" y="38.4058" width="27.2564" height="27.2564" rx="13.6282" transform="rotate(-130.107 17.5591 38.4058)" fill="#111827"/>
<path d="M13.3425 24.1416C13.197 23.9688 13.126 23.7453 13.1453 23.5202C13.1646 23.2951 13.2725 23.0869 13.4452 22.9414L22.2965 15.4862L16.3436 14.9766C16.2294 14.9708 16.1174 14.9421 16.0145 14.8922C15.9116 14.8423 15.8198 14.7722 15.7446 14.686C15.6694 14.5998 15.6123 14.4994 15.5767 14.3907C15.5412 14.2819 15.5279 14.1672 15.5376 14.0532C15.5474 13.9392 15.58 13.8284 15.6335 13.7273C15.687 13.6262 15.7604 13.5369 15.8491 13.4648C15.9379 13.3927 16.0403 13.3392 16.1502 13.3075C16.2601 13.2758 16.3753 13.2665 16.4888 13.2803L24.49 13.9653C24.7149 13.9847 24.9229 14.0926 25.0683 14.2652C25.2137 14.4378 25.2847 14.6611 25.2656 14.886L24.5805 22.8873C24.5748 23.0015 24.5461 23.1134 24.4962 23.2163C24.4463 23.3193 24.3761 23.4111 24.29 23.4863C24.2038 23.5615 24.1034 23.6186 23.9946 23.6541C23.8859 23.6897 23.7712 23.703 23.6572 23.6932C23.5432 23.6835 23.4324 23.6509 23.3313 23.5974C23.2302 23.5438 23.1409 23.4705 23.0688 23.3817C22.9967 23.293 22.9432 23.1906 22.9115 23.0807C22.8798 22.9708 22.8705 22.8556 22.8843 22.742L23.3939 16.7891L14.5427 24.2444C14.3699 24.3899 14.1464 24.4608 13.9213 24.4415C13.6962 24.4223 13.488 24.3144 13.3425 24.1416Z" fill="white"/>
</svg>
