<svg width="20" height="20" viewBox="0 0 20 20" fill="none" xmlns="http://www.w3.org/2000/svg">
<path fill-rule="evenodd" clip-rule="evenodd" d="M5.83317 1.4585C6.17835 1.4585 6.45817 1.73832 6.45817 2.0835V2.7191C7.00986 2.70848 7.61767 2.70849 8.28616 2.7085H11.7135C12.382 2.70849 12.9898 2.70848 13.5415 2.7191V2.0835C13.5415 1.73832 13.8213 1.4585 14.1665 1.4585C14.5117 1.4585 14.7915 1.73832 14.7915 2.0835V2.77274C15.0081 2.78925 15.2133 2.81001 15.4074 2.83611C16.3844 2.96746 17.1752 3.24423 17.7988 3.86787C18.4224 4.4915 18.6992 5.28229 18.8306 6.25931C18.8725 6.57155 18.9007 6.91232 18.9196 7.28356C18.9445 7.35105 18.9582 7.42401 18.9582 7.50016C18.9582 7.55793 18.9503 7.61386 18.9357 7.66697C18.9582 8.33528 18.9582 9.09412 18.9582 9.95315V11.7138C18.9582 13.2453 18.9582 14.4583 18.8306 15.4077C18.6992 16.3847 18.4224 17.1755 17.7988 17.7991C17.1752 18.4228 16.3844 18.6995 15.4074 18.8309C14.458 18.9585 13.245 18.9585 11.7135 18.9585H8.28616C6.75469 18.9585 5.54166 18.9585 4.59232 18.8309C3.6153 18.6995 2.82451 18.4228 2.20087 17.7991C1.57724 17.1755 1.30047 16.3847 1.16912 15.4077C1.04148 14.4583 1.04149 13.2453 1.0415 11.7138V9.95315C1.0415 9.09412 1.04149 8.33528 1.06401 7.66697C1.04934 7.61387 1.0415 7.55793 1.0415 7.50016C1.0415 7.42401 1.05512 7.35104 1.08006 7.28355C1.09897 6.91231 1.12714 6.57155 1.16912 6.25931C1.30047 5.28229 1.57724 4.4915 2.20087 3.86787C2.82451 3.24423 3.6153 2.96746 4.59232 2.83611C4.78642 2.81001 4.99155 2.78925 5.20817 2.77274V2.0835C5.20817 1.73832 5.48799 1.4585 5.83317 1.4585ZM2.30241 8.12516C2.29177 8.6691 2.2915 9.28848 2.2915 10.0002V11.6668C2.2915 13.2558 2.29283 14.3847 2.40797 15.2411C2.52069 16.0795 2.73208 16.5626 3.08476 16.9152C3.43743 17.2679 3.92047 17.4793 4.75888 17.592C5.61526 17.7072 6.74415 17.7085 8.33317 17.7085H11.6665C13.2555 17.7085 14.3844 17.7072 15.2408 17.592C16.0792 17.4793 16.5622 17.2679 16.9149 16.9152C17.2676 16.5626 17.479 16.0795 17.5917 15.2411C17.7068 14.3847 17.7082 13.2558 17.7082 11.6668V10.0002C17.7082 9.28848 17.7079 8.6691 17.6973 8.12516H2.30241ZM17.6401 6.87516H2.35957C2.37292 6.71734 2.38888 6.56786 2.40797 6.42587C2.52069 5.58746 2.73208 5.10442 3.08476 4.75175C3.43743 4.39907 3.92047 4.18768 4.75888 4.07496C5.61527 3.95982 6.74415 3.9585 8.33317 3.9585H11.6665C13.2555 3.9585 14.3844 3.95982 15.2408 4.07496C16.0792 4.18768 16.5622 4.39907 16.9149 4.75175C17.2676 5.10442 17.479 5.58746 17.5917 6.42587C17.6108 6.56786 17.6268 6.71734 17.6401 6.87516Z" fill="#F97316"/>
</svg>
