<svg width="17" height="16" viewBox="0 0 17 16" fill="none" xmlns="http://www.w3.org/2000/svg">
<path fill-rule="evenodd" clip-rule="evenodd" d="M2.0689 0.661243C3.08335 -0.34744 4.75366 -0.167895 5.60309 0.966759L6.65391 2.37043C7.34507 3.29366 7.28408 4.584 6.46366 5.39977L6.26468 5.59761C6.25599 5.62286 6.23492 5.7022 6.25831 5.85299C6.31099 6.19257 6.59456 6.91291 7.78499 8.09659C8.975 9.27984 9.70046 9.56313 10.0448 9.61595C10.2009 9.63989 10.2826 9.61757 10.3078 9.60877L10.6478 9.27069C11.3772 8.54549 12.4979 8.40993 13.4009 8.90082L14.993 9.76629C16.3563 10.5074 16.7007 12.3605 15.5838 13.4711L14.4 14.6482C14.027 15.019 13.5254 15.3283 12.9133 15.3853C11.4058 15.5259 7.89058 15.3465 4.19716 11.6741C0.748898 8.2454 0.0871804 5.25541 0.00345627 3.78222L0.627449 3.74676L0.00345622 3.78222C-0.0388785 3.03729 0.313136 2.40704 0.760902 1.96182L2.0689 0.661243ZM4.60243 1.71588C4.18024 1.15192 3.39334 1.10708 2.95027 1.54764L1.64227 2.84821C1.36733 3.12159 1.23505 3.42286 1.25144 3.71129C1.31796 4.88179 1.85238 7.57986 5.07852 10.7877C8.46307 14.153 11.589 14.2534 12.7973 14.1407C13.0441 14.1177 13.2896 13.9895 13.5186 13.7618L14.7024 12.5847C15.1836 12.1062 15.0775 11.235 14.396 10.8645L12.8039 9.99904C12.3643 9.76005 11.8492 9.8389 11.5292 10.1571L11.1497 10.5345L10.709 10.0913C11.1497 10.5345 11.1491 10.5351 11.1485 10.5357L11.1472 10.5369L11.1447 10.5393L11.1393 10.5445L11.1271 10.5559C11.1183 10.5639 11.1083 10.5727 11.097 10.582C11.0743 10.6008 11.0465 10.622 11.0132 10.6443C10.9465 10.689 10.8584 10.7376 10.7477 10.7789C10.522 10.8629 10.2243 10.9081 9.85533 10.8515C9.133 10.7407 8.17613 10.2483 6.90363 8.98298C5.63156 7.71813 5.13495 6.76569 5.02309 6.04462C4.96588 5.67591 5.01151 5.37816 5.09661 5.15228C5.13832 5.04158 5.18748 4.95356 5.23258 4.88698C5.25508 4.85378 5.27649 4.82602 5.29539 4.80348C5.30483 4.7922 5.31366 4.78222 5.3217 4.77349L5.33314 4.76134L5.33838 4.75595L5.34087 4.75343L5.34209 4.75222C5.34269 4.75162 5.34328 4.75103 5.78396 5.19423L5.34328 4.75103L5.58229 4.51337C5.93946 4.15823 5.98949 3.56869 5.65325 3.11955L4.60243 1.71588Z" fill="#D6D6D6"/>
</svg>
