<svg width="24" height="24" viewBox="0 0 24 24" fill="none" xmlns="http://www.w3.org/2000/svg">
<path d="M22.001 15.4222V18.5C22.001 18.9659 22.001 19.1989 21.9249 19.3827C21.8234 19.6277 21.6287 19.8224 21.3837 19.9239C21.1999 20 20.9669 20 20.501 20C20.0351 20 19.8021 20 19.6183 19.9239C19.3733 19.8224 19.1786 19.6277 19.0771 19.3827C19.001 19.1989 19.001 18.9659 19.001 18.5C19.001 18.0341 19.001 17.8011 18.9249 17.6173C18.8234 17.3723 18.6287 17.1776 18.3837 17.0761C18.1999 17 17.9669 17 17.501 17H6.50098C6.03504 17 5.80207 17 5.6183 17.0761C5.37327 17.1776 5.17859 17.3723 5.0771 17.6173C5.00098 17.8011 5.00098 18.0341 5.00098 18.5C5.00098 18.9659 5.00098 19.1989 4.92486 19.3827C4.82337 19.6277 4.62869 19.8224 4.38366 19.9239C4.19989 20 3.96692 20 3.50098 20C3.03504 20 2.80207 20 2.6183 19.9239C2.37327 19.8224 2.17859 19.6277 2.0771 19.3827C2.00098 19.1989 2.00098 18.9659 2.00098 18.5V15.4222C2.00098 14.22 2.00098 13.6188 2.17261 13.052C2.34424 12.4851 2.67769 11.9849 3.34458 10.9846L4.00098 10L4.96252 7.69231C5.70824 5.90257 6.08111 5.0077 6.83688 4.50385C7.59265 4 8.5621 4 10.501 4H13.501C15.4399 4 16.4093 4 17.1651 4.50385C17.9209 5.0077 18.2937 5.90257 19.0395 7.69231L20.001 10L20.6574 10.9846C21.3243 11.9849 21.6577 12.4851 21.8294 13.052C22.001 13.6188 22.001 14.22 22.001 15.4222Z" stroke="#4B5563" stroke-width="1.5" stroke-linecap="round" stroke-linejoin="round"/>
<path d="M6.12598 14H6.00098M6.25098 14C6.25098 14.1381 6.13905 14.25 6.00098 14.25C5.86291 14.25 5.75098 14.1381 5.75098 14C5.75098 13.8619 5.86291 13.75 6.00098 13.75C6.13905 13.75 6.25098 13.8619 6.25098 14Z" stroke="#4B5563" stroke-width="1.5" stroke-linecap="round" stroke-linejoin="round"/>
<path d="M18.126 14H18.001M18.251 14C18.251 14.1381 18.1391 14.25 18.001 14.25C17.8629 14.25 17.751 14.1381 17.751 14C17.751 13.8619 17.8629 13.75 18.001 13.75C18.1391 13.75 18.251 13.8619 18.251 14Z" stroke="#4B5563" stroke-width="1.5" stroke-linecap="round" stroke-linejoin="round"/>
<path d="M2.00098 8.5L4.00098 10L6.00098 10.5H18.001L20.001 10L22.001 8.5" stroke="#4B5563" stroke-width="1.5" stroke-linecap="round" stroke-linejoin="round"/>
</svg>
