<svg width="35" height="35" viewBox="0 0 35 35" fill="none" xmlns="http://www.w3.org/2000/svg">
<path d="M22.9135 24.4602L10.5391 12.0858C10.1163 11.663 10.1163 10.9618 10.5391 10.539C10.9619 10.1162 11.6631 10.1162 12.0859 10.539L24.4603 22.9134C24.8831 23.3362 24.8831 24.0374 24.4603 24.4602C24.0375 24.883 23.3363 24.883 22.9135 24.4602Z" fill="#1C274C"/>
<path d="M10.5397 24.4602C10.1169 24.0374 10.1169 23.3362 10.5397 22.9134L22.9141 10.539C23.3369 10.1162 24.0381 10.1162 24.4609 10.539C24.8837 10.9618 24.8837 11.663 24.4609 12.0858L12.0865 24.4602C11.6637 24.883 10.9625 24.883 10.5397 24.4602Z" fill="#1C274C"/>
</svg>
