<svg width="14" height="14" viewBox="0 0 14 14" fill="none" xmlns="http://www.w3.org/2000/svg">
<path d="M9.23771 5.48771C9.42076 5.30465 9.42076 5.00785 9.23771 4.82479C9.05465 4.64174 8.75785 4.64174 8.57479 4.82479L5.78125 7.61834L4.86271 6.69979C4.67965 6.51674 4.38285 6.51674 4.19979 6.69979C4.01674 6.88285 4.01674 7.17965 4.19979 7.36271L5.44979 8.61271C5.63285 8.79576 5.92965 8.79576 6.11271 8.61271L9.23771 5.48771Z" fill="#16A34A"/>
<path fill-rule="evenodd" clip-rule="evenodd" d="M6.71875 0C3.00809 0 0 3.00809 0 6.71875C0 10.4294 3.00809 13.4375 6.71875 13.4375C10.4294 13.4375 13.4375 10.4294 13.4375 6.71875C13.4375 3.00809 10.4294 0 6.71875 0ZM0.9375 6.71875C0.9375 3.52585 3.52585 0.9375 6.71875 0.9375C9.91165 0.9375 12.5 3.52585 12.5 6.71875C12.5 9.91165 9.91165 12.5 6.71875 12.5C3.52585 12.5 0.9375 9.91165 0.9375 6.71875Z" fill="#16A34A"/>
</svg>
