<svg width="15" height="18" viewBox="0 0 15 18" fill="none" xmlns="http://www.w3.org/2000/svg">
<path fill-rule="evenodd" clip-rule="evenodd" d="M14.3986 7.60421C14.0897 7.06925 13.5236 6.89339 12.9832 6.81782C12.4385 6.74165 11.7094 6.74168 10.8276 6.7417L10.7774 6.7417C10.2523 6.7417 9.90902 6.73653 9.65892 6.70175C9.43272 6.67031 9.36079 6.62375 9.33011 6.5966C9.30762 6.57318 9.26759 6.51841 9.24032 6.32093C9.20816 6.08809 9.20676 5.76881 9.20676 5.25708V4.94501C9.20678 3.62208 9.2068 2.56229 9.10498 1.80672C9.00941 1.0975 8.78224 0.300963 7.99542 0.0598426C7.22242 -0.177043 6.57408 0.330917 6.07012 0.854595C5.53326 1.41247 4.89552 2.27534 4.09704 3.35571L1.48288 6.89263C0.974262 7.58073 0.550273 8.15433 0.297645 8.62866C0.044407 9.10414 -0.139891 9.66867 0.141004 10.2319L0.141982 10.2339L0.144943 10.24L0.148308 10.2466L0.15162 10.253L0.155244 10.2598L0.158929 10.2666L0.162418 10.2729L0.166106 10.2794L0.169484 10.2851L0.170724 10.2872C0.476976 10.8176 1.04061 11.0032 1.58591 11.0865C2.14785 11.1723 2.89766 11.1778 3.80703 11.1778C4.33754 11.1778 4.67581 11.179 4.92424 11.2107C5.1437 11.2386 5.20933 11.2818 5.23747 11.3067C5.26239 11.3327 5.30609 11.3935 5.33691 11.5981C5.37217 11.8323 5.37771 12.1565 5.3777 12.6624L5.37769 12.9744C5.37766 14.2973 5.37763 15.3571 5.47943 16.1127C5.57499 16.8219 5.80215 17.6185 6.58897 17.8596C7.36197 18.0965 8.01033 17.5886 8.51429 17.0649C9.05116 16.507 9.68892 15.6441 10.4874 14.5637L13.0702 11.0693C13.5959 10.3581 14.0282 9.76393 14.2832 9.2694C14.5327 8.78544 14.7067 8.21762 14.4284 7.65958L14.4274 7.65757L14.4245 7.65151L14.4211 7.64482L14.4178 7.63841L14.4141 7.63156L14.4104 7.62476L14.4069 7.61846L14.4032 7.61197L14.3998 7.60617L14.3986 7.60421ZM6.9708 1.72136C6.4975 2.21318 5.9077 3.00895 5.07124 4.14066L2.51946 7.59319C1.97138 8.33473 1.60468 8.83369 1.40092 9.21627C1.30175 9.40248 1.26451 9.51996 1.25391 9.59107C1.24737 9.63499 1.25136 9.65482 1.25659 9.66752C1.27675 9.69723 1.36426 9.78818 1.77457 9.85082C2.22282 9.91926 2.86734 9.92779 3.80703 9.92779L3.84534 9.92779C4.32629 9.92776 4.74535 9.92774 5.08233 9.9707C5.44331 10.0167 5.80188 10.1214 6.09878 10.4006L6.10363 10.4052L6.10839 10.4099C6.40007 10.6962 6.51863 11.0511 6.57297 11.412C6.62491 11.7569 6.62771 12.1811 6.6277 12.6625L6.6277 12.9204C6.62767 14.3095 6.62908 15.2841 6.71824 15.9458C6.76263 16.2753 6.82236 16.4686 6.87954 16.5765C6.92239 16.6574 6.94706 16.6627 6.95399 16.6642L6.95523 16.6645L6.9565 16.6649C6.96522 16.6679 6.99594 16.6785 7.09067 16.6309C7.209 16.5713 7.37804 16.4429 7.61361 16.1981C8.08692 15.7063 8.67674 14.9105 9.51321 13.7788L12.065 10.3263C12.61 9.58899 12.973 9.08275 13.1721 8.69661C13.3427 8.36566 13.3242 8.25358 13.3128 8.22383C13.2941 8.19649 13.21 8.1117 12.8101 8.05578C12.3625 7.99319 11.7221 7.9917 10.7774 7.9917C10.275 7.9917 9.83935 7.98886 9.48678 7.93984C9.12275 7.88923 8.76333 7.77966 8.46902 7.50286L8.46416 7.49829L8.4594 7.49362C8.16506 7.20471 8.05154 6.85017 8.00207 6.49194C7.95669 6.16334 7.95672 5.75641 7.95676 5.29737L7.95676 4.999C7.95676 3.60992 7.95535 2.63538 7.86618 1.97365C7.82178 1.64416 7.76205 1.45088 7.70487 1.34295C7.66201 1.26206 7.63734 1.25677 7.63042 1.25528L7.62917 1.25498L7.62791 1.25456C7.61919 1.25155 7.58847 1.24095 7.49374 1.28862C7.3754 1.34816 7.20637 1.47657 6.9708 1.72136Z" fill="#F97316"/>
</svg>
