<svg width="62" height="43" viewBox="0 0 62 43" fill="none" xmlns="http://www.w3.org/2000/svg">
<path d="M30.6312 21.1069L37.6784 17.5578L58.2996 7.17238L59.6038 6.12904L58.2996 2.74316H2.21191V5.90727L4.265 7.17238L23.9157 17.5578L30.6312 21.1069Z" fill="white"/>
<path d="M37.6784 17.5578L30.6312 21.1069L23.9157 17.5578L4.265 37.9489L2.50411 40.2809L2.5074 40.6679H59.6038L58.7986 38.7416L58.2996 37.5479L37.6784 17.5578Z" fill="#F2F2F2"/>
<path d="M23.9157 17.5578L4.265 7.17238L2.21191 5.90727L2.50411 40.2809L4.265 37.9489L23.9157 17.5578Z" fill="#F2F2F2"/>
<path d="M58.2996 7.17238L37.6784 17.5578L58.2996 37.5479L58.7986 38.7416L59.6038 6.12904L58.2996 7.17238Z" fill="#F2F2F2"/>
<path d="M37.6784 17.5578L30.6312 21.1069L23.9157 17.5578M37.6784 17.5578L58.2996 7.17238L59.6038 6.12904M37.6784 17.5578L58.2996 37.5479L58.7986 38.7416M23.9157 17.5578L4.265 7.17238L2.21191 5.90727M23.9157 17.5578L4.265 37.9489L2.50411 40.2809M59.6038 6.12904L58.7986 38.7416M59.6038 6.12904L58.2996 2.74316H2.21191V5.90727M58.7986 38.7416L59.6038 40.6679H2.5074M2.21191 5.90727L2.50411 40.2809M2.5074 40.6679H2.21191L2.50411 40.2809M2.5074 40.6679L2.50411 40.2809" stroke="#CCCCCC" stroke-width="1.7"/>
<path fill-rule="evenodd" clip-rule="evenodd" d="M0.5 0.5V42.1802H61.469V0.5H0.5ZM57.9985 38.8511L4.26473 38.3498V6.77121V4.56572H57.9985V38.8511Z" fill="black" stroke="black"/>
</svg>
