<svg width="12" height="12" viewBox="0 0 12 12" fill="none" xmlns="http://www.w3.org/2000/svg">
<g clip-path="url(#clip0_2563_8140)">
<path d="M8 11V4C8 2.58579 8 1.87868 7.56066 1.43934C7.12132 1 6.41421 1 5 1H4.5C3.08579 1 2.37868 1 1.93934 1.43934C1.5 1.87868 1.5 2.58579 1.5 4V11" stroke="#F97316" stroke-width="0.947369"/>
<path d="M5.5 3H4C3.5286 3 3.29289 3 3.14645 3.14645C3 3.29289 3 3.5286 3 4C3 4.4714 3 4.70711 3.14645 4.85355C3.29289 5 3.5286 5 4 5H5.5C5.9714 5 6.20711 5 6.35355 4.85355C6.5 4.70711 6.5 4.4714 6.5 4C6.5 3.5286 6.5 3.29289 6.35355 3.14645C6.20711 3 5.9714 3 5.5 3Z" stroke="#F97316" stroke-width="0.947369"/>
<path d="M3.5 8.5H6" stroke="#F97316" stroke-width="0.947369" stroke-linecap="round"/>
<path d="M8.5 11H1" stroke="#F97316" stroke-width="0.947369" stroke-linecap="round"/>
<path d="M9.75 2L10.3665 2.49323C10.4355 2.54836 10.4699 2.57593 10.5013 2.60402C10.7969 2.86903 10.9754 3.24043 10.9976 3.63682C11 3.67885 11 3.72297 11 3.81122V9.25C11 9.66421 10.6642 10 10.25 10C9.83579 10 9.5 9.66421 9.5 9.25V9.21429C9.5 8.8198 9.1802 8.5 8.78571 8.5H8" stroke="#F97316" stroke-width="0.947369" stroke-linecap="round"/>
<path d="M11 4H10.25C9.83579 4 9.5 4.33579 9.5 4.75V5.95943C9.5 6.28225 9.70657 6.56886 10.0128 6.67094L11 7" stroke="#F97316" stroke-width="0.947369" stroke-linecap="round"/>
</g>
<defs>
<clipPath id="clip0_2563_8140">
<rect width="12" height="12" fill="white"/>
</clipPath>
</defs>
</svg>
