<svg width="24" height="24" viewBox="0 0 24 24" fill="none" xmlns="http://www.w3.org/2000/svg">
<rect width="24" height="24" rx="12" fill="#F97316" fill-opacity="0.2"/>
<path d="M14.5 13C14.6326 13 14.7598 12.9473 14.8536 12.8536C14.9473 12.7598 15 12.6326 15 12.5C15 12.3674 14.9473 12.2402 14.8536 12.1464C14.7598 12.0527 14.6326 12 14.5 12C14.3674 12 14.2402 12.0527 14.1464 12.1464C14.0527 12.2402 14 12.3674 14 12.5C14 12.6326 14.0527 12.7598 14.1464 12.8536C14.2402 12.9473 14.3674 13 14.5 13ZM14.5 15C14.6326 15 14.7598 14.9473 14.8536 14.8536C14.9473 14.7598 15 14.6326 15 14.5C15 14.3674 14.9473 14.2402 14.8536 14.1464C14.7598 14.0527 14.6326 14 14.5 14C14.3674 14 14.2402 14.0527 14.1464 14.1464C14.0527 14.2402 14 14.3674 14 14.5C14 14.6326 14.0527 14.7598 14.1464 14.8536C14.2402 14.9473 14.3674 15 14.5 15ZM12.5 12.5C12.5 12.6326 12.4473 12.7598 12.3536 12.8536C12.2598 12.9473 12.1326 13 12 13C11.8674 13 11.7402 12.9473 11.6464 12.8536C11.5527 12.7598 11.5 12.6326 11.5 12.5C11.5 12.3674 11.5527 12.2402 11.6464 12.1464C11.7402 12.0527 11.8674 12 12 12C12.1326 12 12.2598 12.0527 12.3536 12.1464C12.4473 12.2402 12.5 12.3674 12.5 12.5ZM12.5 14.5C12.5 14.6326 12.4473 14.7598 12.3536 14.8536C12.2598 14.9473 12.1326 15 12 15C11.8674 15 11.7402 14.9473 11.6464 14.8536C11.5527 14.7598 11.5 14.6326 11.5 14.5C11.5 14.3674 11.5527 14.2402 11.6464 14.1464C11.7402 14.0527 11.8674 14 12 14C12.1326 14 12.2598 14.0527 12.3536 14.1464C12.4473 14.2402 12.5 14.3674 12.5 14.5ZM9.5 13C9.63261 13 9.75979 12.9473 9.85355 12.8536C9.94732 12.7598 10 12.6326 10 12.5C10 12.3674 9.94732 12.2402 9.85355 12.1464C9.75979 12.0527 9.63261 12 9.5 12C9.36739 12 9.24021 12.0527 9.14645 12.1464C9.05268 12.2402 9 12.3674 9 12.5C9 12.6326 9.05268 12.7598 9.14645 12.8536C9.24021 12.9473 9.36739 13 9.5 13ZM9.5 15C9.63261 15 9.75979 14.9473 9.85355 14.8536C9.94732 14.7598 10 14.6326 10 14.5C10 14.3674 9.94732 14.2402 9.85355 14.1464C9.75979 14.0527 9.63261 14 9.5 14C9.36739 14 9.24021 14.0527 9.14645 14.1464C9.05268 14.2402 9 14.3674 9 14.5C9 14.6326 9.05268 14.7598 9.14645 14.8536C9.24021 14.9473 9.36739 15 9.5 15Z" fill="#F97316"/>
<path fill-rule="evenodd" clip-rule="evenodd" d="M9.4995 6.875C9.59896 6.875 9.69434 6.91451 9.76467 6.98483C9.83499 7.05516 9.8745 7.15054 9.8745 7.25V7.6315C10.2055 7.625 10.57 7.625 10.971 7.625H13.0275C13.429 7.625 13.7935 7.625 14.1245 7.6315V7.25C14.1245 7.15054 14.164 7.05516 14.2343 6.98483C14.3047 6.91451 14.4 6.875 14.4995 6.875C14.599 6.875 14.6943 6.91451 14.7647 6.98483C14.835 7.05516 14.8745 7.15054 14.8745 7.25V7.6635C15.0045 7.6735 15.1277 7.68617 15.244 7.7015C15.83 7.7805 16.3045 7.9465 16.679 8.3205C17.053 8.695 17.219 9.1695 17.298 9.7555C17.3745 10.3255 17.3745 11.053 17.3745 11.972V13.028C17.3745 13.947 17.3745 14.675 17.298 15.2445C17.219 15.8305 17.053 16.305 16.679 16.6795C16.3045 17.0535 15.83 17.2195 15.244 17.2985C14.674 17.375 13.9465 17.375 13.0275 17.375H10.972C10.053 17.375 9.325 17.375 8.7555 17.2985C8.1695 17.2195 7.695 17.0535 7.3205 16.6795C6.9465 16.305 6.7805 15.8305 6.7015 15.2445C6.625 14.6745 6.625 13.947 6.625 13.028V11.972C6.625 11.053 6.625 10.325 6.7015 9.7555C6.7805 9.1695 6.9465 8.695 7.3205 8.3205C7.695 7.9465 8.1695 7.7805 8.7555 7.7015C8.87217 7.68617 8.99533 7.6735 9.125 7.6635V7.25C9.125 7.15063 9.16444 7.05532 9.23466 6.98501C9.30488 6.9147 9.40013 6.87513 9.4995 6.875ZM8.8545 8.445C8.352 8.5125 8.062 8.6395 7.8505 8.851C7.639 9.0625 7.512 9.3525 7.4445 9.855C7.43317 9.94 7.4235 10.0298 7.4155 10.1245H16.5835C16.5755 10.0298 16.5658 9.93983 16.5545 9.8545C16.487 9.352 16.36 9.062 16.1485 8.8505C15.937 8.639 15.647 8.512 15.144 8.4445C14.6305 8.3755 13.953 8.3745 12.9995 8.3745H10.9995C10.046 8.3745 9.369 8.376 8.8545 8.445ZM7.3745 12C7.3745 11.573 7.3745 11.2015 7.381 10.875H16.618C16.6245 11.2015 16.6245 11.573 16.6245 12V13C16.6245 13.9535 16.6235 14.631 16.5545 15.145C16.487 15.6475 16.36 15.9375 16.1485 16.149C15.937 16.3605 15.647 16.4875 15.144 16.555C14.6305 16.624 13.953 16.625 12.9995 16.625H10.9995C10.046 16.625 9.369 16.624 8.8545 16.555C8.352 16.4875 8.062 16.3605 7.8505 16.149C7.639 15.9375 7.512 15.6475 7.4445 15.1445C7.3755 14.631 7.3745 13.9535 7.3745 13V12Z" fill="#F97316"/>
</svg>
