<svg width="116" height="53" viewBox="0 0 116 53" fill="none" xmlns="http://www.w3.org/2000/svg">
<path d="M50.1384 14.9451V34.5514H58.2787V0H54.9442C54.9442 0 55.3837 3.79926 54.9442 6.1673C54.5462 8.31165 54.1438 9.53824 53.0317 11.4144C52.1227 12.9478 50.1384 14.9451 50.1384 14.9451Z" fill="#1B1B1B"/>
<path d="M38.6668 22.546V34.5514H46.4115V18.794C46.4115 18.794 44.1834 20.9755 42.3904 21.7246C41.0164 22.2987 38.6668 22.546 38.6668 22.546Z" fill="#1B1B1B"/>
<path d="M0 15.9737V34.3743L7.69786 34.5514V22.6315C7.69786 21.8281 8.03012 21.0468 8.70707 20.6142C9.34687 20.2053 10.1849 19.8 10.8962 19.8896C11.4271 19.9564 12.0072 20.314 12.4603 20.661C13.0091 21.0811 13.2794 21.7505 13.3073 22.4411L13.7182 32.6073C13.7621 33.6934 14.6554 34.5514 15.7425 34.5514H21.3738C21.3738 34.5514 20.8845 23.7449 21.3738 21.7246C21.7126 20.3257 23.1337 19.8005 24.5704 19.8896C25.8694 19.9701 27.1557 20.438 27.3525 21.7246C27.6155 23.4433 27.4832 29.7229 27.4013 32.7376C27.3767 33.6392 28.0887 34.3913 28.9904 34.412L35.048 34.5514V19.2384C35.048 19.2384 34.0663 14.3844 27.3525 14.3844C19.756 14.3844 18.414 18.0545 18.414 18.0545C18.414 18.0545 15.8828 13.4448 9.88988 14.3844C6.0253 14.9903 0 15.9737 0 15.9737Z" fill="#1B1B1B"/>
<path fill-rule="evenodd" clip-rule="evenodd" d="M73.2091 14.7663C67.0927 15.0546 61.7337 15.9428 61.1315 24.4597C60.58 32.2602 66.0984 33.8295 68.4707 34.5514C70.846 35.2742 82.9393 34.5514 82.9393 34.5514V29.9117C82.9393 29.9117 76.3361 31.1981 73.1538 30.3311C67.8853 28.8958 68.8202 26.6964 68.8202 26.6964H82.9393C82.9393 26.6964 83.4477 24.2612 83.3463 22.6722C83.2457 21.0964 82.9393 19.6377 82.4501 18.794C82.0277 18.0658 78.5565 14.5143 73.2091 14.7663ZM69.2651 20.2076C70.0523 19.0417 71.2324 18.9167 72.6392 18.9167C74.5463 18.9167 74.7264 19.4379 75.4559 20.2076C76.0864 20.8728 76.3361 22.6722 76.3361 22.6722H68.8202C68.8202 22.6722 68.7178 21.0182 69.2651 20.2076Z" fill="#1B1B1B"/>
<path d="M104.313 15.2283V19.5241C104.313 19.5241 97.5841 18.5717 94.6652 19.1016C94.0101 19.2205 93.1538 19.7142 93.2951 20.452C93.4853 21.445 106.159 22.2558 105.185 28.2495C104.661 31.4709 102.821 33.6104 99.696 34.5514C95.9214 35.688 85.9734 34.0063 85.9734 34.0063L86.2075 29.3699C86.2075 29.3699 96.9178 31.4092 97.4727 28.7958C97.9768 26.4213 84.3159 28.2495 85.4218 20.939C85.9734 17.2928 88.4615 15.9363 91.6991 15.2283C96.5075 14.1768 104.313 15.2283 104.313 15.2283Z" fill="#1B1B1B"/>
<path d="M111.421 26.4429C109.214 26.5968 107.522 28.2196 107.395 30.428C107.261 32.7727 109.078 34.7322 111.421 34.896C113.927 35.0712 115.991 32.9364 115.848 30.428C115.713 28.0465 113.8 26.2771 111.421 26.4429Z" fill="#F97316"/>
<path d="M38.2158 11.1261L38.6668 18.794C38.6668 18.794 44.2732 17.5278 47.5376 12.8551L47.5751 12.8014C50.6749 8.36426 51.0458 7.83333 51.5219 4.13469C51.728 2.53321 51.5219 0 51.5219 0H49.868C49.868 0 48.4863 6.45594 45.4326 8.79562C43.0817 10.5969 38.2158 11.1261 38.2158 11.1261Z" fill="#F97316"/>
<path d="M14.2945 50.5193C13.8289 50.5193 13.3996 50.4377 13.0065 50.2744C12.6195 50.1051 12.2809 49.8692 11.9906 49.5669C11.7003 49.2645 11.4766 48.9078 11.3194 48.4966C11.1622 48.0854 11.0835 47.6349 11.0835 47.145C11.0835 46.6552 11.1622 46.2078 11.3194 45.8026C11.4766 45.3975 11.6973 45.0467 11.9815 44.7504C12.2718 44.4481 12.6104 44.2153 12.9974 44.052C13.3905 43.8887 13.8229 43.8071 14.2945 43.8071C14.8146 43.8071 15.2832 43.9099 15.7005 44.1155C16.1177 44.3211 16.4594 44.6113 16.7254 44.9863C16.9975 45.3551 17.1638 45.7905 17.2243 46.2924H16.0633C15.9907 45.8026 15.7942 45.4277 15.4737 45.1677C15.1532 44.9016 14.7632 44.7686 14.3036 44.7686C13.8984 44.7686 13.5447 44.8653 13.2423 45.0588C12.94 45.2523 12.7042 45.5275 12.5348 45.8842C12.3655 46.235 12.2809 46.6522 12.2809 47.136C12.2809 47.6318 12.3655 48.0612 12.5348 48.424C12.7042 48.7808 12.943 49.0589 13.2514 49.2585C13.5598 49.458 13.9136 49.5578 14.3127 49.5578C14.7601 49.5578 15.1441 49.4278 15.4646 49.1678C15.7851 48.9017 15.9877 48.5268 16.0723 48.043H17.2425C17.1699 48.5389 16.9975 48.9743 16.7254 49.3492C16.4594 49.7241 16.1177 50.0144 15.7005 50.22C15.2832 50.4195 14.8146 50.5193 14.2945 50.5193ZM21.7048 50.4286L24.1085 43.8978H25.1244L22.8658 50.4286H21.7048ZM26.6301 50.4286L24.3806 43.8978H25.4509L27.8456 50.4286H26.6301ZM22.9475 47.8616H26.5213V48.805H22.9475V47.8616ZM32.7686 50.4286V43.8978H35.5261C35.9917 43.8978 36.3968 43.9764 36.7415 44.1336C37.0862 44.2908 37.3492 44.5116 37.5307 44.7958C37.7181 45.08 37.8118 45.4126 37.8118 45.7935C37.8118 46.1685 37.7181 46.498 37.5307 46.7822C37.3492 47.0664 37.0862 47.2872 36.7415 47.4444C36.3968 47.6016 35.9917 47.6802 35.5261 47.6802H33.6938V46.7822H35.4898C35.8707 46.7822 36.161 46.6945 36.3605 46.5192C36.5661 46.3438 36.6689 46.1019 36.6689 45.7935C36.6689 45.4851 36.5692 45.2493 36.3696 45.086C36.1701 44.9167 35.8768 44.8321 35.4898 44.8321H33.9478V50.4286H32.7686ZM36.5057 50.4286L33.594 47.0906H34.9183L38.1384 50.4286H36.5057ZM49.0722 50.4286V43.8978H51.8297C52.2953 43.8978 52.7004 43.9764 53.0451 44.1336C53.3898 44.2908 53.6528 44.5116 53.8343 44.7958C54.0217 45.08 54.1154 45.4126 54.1154 45.7935C54.1154 46.1685 54.0217 46.498 53.8343 46.7822C53.6528 47.0664 53.3898 47.2872 53.0451 47.4444C52.7004 47.6016 52.2953 47.6802 51.8297 47.6802H49.9974V46.7822H51.7934C52.1743 46.7822 52.4646 46.6945 52.6642 46.5192C52.8698 46.3438 52.9726 46.1019 52.9726 45.7935C52.9726 45.4851 52.8728 45.2493 52.6732 45.086C52.4737 44.9167 52.1804 44.8321 51.7934 44.8321H50.2514V50.4286H49.0722ZM52.8093 50.4286L49.8976 47.0906H51.2219L54.442 50.4286H52.8093ZM59.386 50.4286V43.8978H60.5652V50.4286H59.386ZM59.9484 50.4286V49.4943H64.0845V50.4286H59.9484ZM59.9484 47.526V46.6099H63.7671V47.526H59.9484ZM59.9484 44.8321V43.8978H63.9848V44.8321H59.9484ZM69.3625 50.4286V43.8978H70.8229L74.0067 49.576L73.6711 49.6576V43.8978H74.8139V50.4286H73.3536L70.1698 44.7504L70.5054 44.6688V50.4286H69.3625ZM82.0578 50.4286V44.8321H79.8899V43.8978H85.4048V44.8321H83.2369V50.4286H82.0578ZM89.1047 50.4286L91.5084 43.8978H92.5243L90.2657 50.4286H89.1047ZM94.03 50.4286L91.7805 43.8978H92.8508L95.2454 50.4286H94.03ZM90.3473 47.8616H93.9211V48.805H90.3473V47.8616ZM100.329 50.4286V43.8978H101.508V50.4286H100.329ZM100.891 50.4286V49.4943H104.719V50.4286H100.891Z" fill="#1B1B1B"/>
</svg>
