<svg width="24" height="24" viewBox="0 0 24 24" fill="none" xmlns="http://www.w3.org/2000/svg">
<rect width="24" height="24" rx="12" fill="#F97316" fill-opacity="0.2"/>
<path d="M10.5793 11.81C10.5643 11.81 10.5543 11.81 10.5393 11.81C10.5143 11.805 10.4793 11.805 10.4493 11.81C8.9993 11.765 7.9043 10.625 7.9043 9.22C7.9043 7.79 9.0693 6.625 10.4993 6.625C11.9293 6.625 13.0943 7.79 13.0943 9.22C13.0893 10.625 11.9893 11.765 10.5943 11.81C10.5893 11.81 10.5843 11.81 10.5793 11.81ZM10.4993 7.375C9.4843 7.375 8.6543 8.205 8.6543 9.22C8.6543 10.22 9.4343 11.025 10.4293 11.06C10.4593 11.055 10.5243 11.055 10.5893 11.06C11.5693 11.015 12.3393 10.21 12.3443 9.22C12.3443 8.205 11.5143 7.375 10.4993 7.375Z" fill="#F97316"/>
<path d="M14.2692 11.875C14.2542 11.875 14.2392 11.875 14.2242 11.87C14.0192 11.89 13.8092 11.745 13.7892 11.54C13.7692 11.335 13.8942 11.15 14.0992 11.125C14.1592 11.12 14.2242 11.12 14.2792 11.12C15.0092 11.08 15.5792 10.48 15.5792 9.745C15.5792 8.985 14.9642 8.37 14.2042 8.37C13.9992 8.375 13.8292 8.205 13.8292 8C13.8292 7.795 13.9992 7.625 14.2042 7.625C15.3742 7.625 16.3292 8.58 16.3292 9.75C16.3292 10.9 15.4292 11.83 14.2842 11.875C14.2792 11.875 14.2742 11.875 14.2692 11.875Z" fill="#F97316"/>
<path d="M10.5858 17.275C9.60578 17.275 8.62078 17.025 7.87578 16.525C7.18078 16.065 6.80078 15.435 6.80078 14.75C6.80078 14.065 7.18078 13.43 7.87578 12.965C9.37578 11.97 11.8058 11.97 13.2958 12.965C13.9858 13.425 14.3708 14.055 14.3708 14.74C14.3708 15.425 13.9908 16.06 13.2958 16.525C12.5458 17.025 11.5658 17.275 10.5858 17.275ZM8.29078 13.595C7.81078 13.915 7.55078 14.325 7.55078 14.755C7.55078 15.18 7.81578 15.59 8.29078 15.905C9.53578 16.74 11.6358 16.74 12.8808 15.905C13.3608 15.585 13.6208 15.175 13.6208 14.745C13.6208 14.32 13.3558 13.91 12.8808 13.595C11.6358 12.765 9.53578 12.765 8.29078 13.595Z" fill="#F97316"/>
<path d="M15.1691 16.375C14.9941 16.375 14.8391 16.255 14.8041 16.075C14.7641 15.87 14.8941 15.675 15.0941 15.63C15.4091 15.565 15.6991 15.44 15.9241 15.265C16.2091 15.05 16.3641 14.78 16.3641 14.495C16.3641 14.21 16.2091 13.94 15.9291 13.73C15.7091 13.56 15.4341 13.44 15.1091 13.365C14.9091 13.32 14.7791 13.12 14.8241 12.915C14.8691 12.715 15.0691 12.585 15.2741 12.63C15.7041 12.725 16.0791 12.895 16.3841 13.13C16.8491 13.48 17.1141 13.975 17.1141 14.495C17.1141 15.015 16.8441 15.51 16.3791 15.865C16.0691 16.105 15.6791 16.28 15.2491 16.365C15.2191 16.375 15.1941 16.375 15.1691 16.375Z" fill="#F97316"/>
</svg>
