<svg width="12" height="12" viewBox="0 0 12 12" fill="none" xmlns="http://www.w3.org/2000/svg">
<path d="M2.126 10C1.77933 10 1.48417 9.87833 1.2405 9.635C0.996833 9.39233 0.875 9.09733 0.875 8.75C0.875 8.45067 0.970333 8.18633 1.161 7.957C1.35167 7.72767 1.58967 7.58533 1.875 7.53V4.47C1.58967 4.415 1.35167 4.27283 1.161 4.0435C0.970333 3.81383 0.875 3.54933 0.875 3.25C0.875 2.90267 0.9965 2.60767 1.2395 2.365C1.48217 2.12167 1.777 2 2.124 2C2.471 2 2.76617 2.12167 3.0095 2.365C3.25283 2.60833 3.37467 2.90333 3.375 3.25C3.375 3.54933 3.27967 3.81383 3.089 4.0435C2.89833 4.27283 2.66033 4.41517 2.375 4.4705V5.75H5.75V4.47C5.46467 4.415 5.22667 4.27283 5.036 4.0435C4.84533 3.81383 4.75 3.54933 4.75 3.25C4.75 2.90267 4.8715 2.60767 5.1145 2.365C5.35717 2.12167 5.652 2 5.999 2C6.346 2 6.64117 2.12167 6.8845 2.365C7.12783 2.60833 7.24967 2.90333 7.25 3.25C7.25 3.54933 7.15467 3.81383 6.964 4.0435C6.77333 4.27283 6.53533 4.41517 6.25 4.4705V5.75H9.635V4.47C9.34967 4.415 9.1115 4.27283 8.9205 4.0435C8.72983 3.81383 8.6345 3.54933 8.6345 3.25C8.6345 2.90267 8.756 2.60767 8.999 2.365C9.24167 2.12167 9.5365 2 9.8835 2C10.2305 2 10.5258 2.12167 10.7695 2.365C11.0132 2.60833 11.1348 2.90333 11.1345 3.25C11.1345 3.54933 11.0392 3.81383 10.8485 4.0435C10.6578 4.27283 10.4198 4.41517 10.1345 4.4705V6.25H6.25V7.53C6.53533 7.585 6.77333 7.72717 6.964 7.9565C7.15467 8.18617 7.25 8.45067 7.25 8.75C7.25 9.09733 7.12867 9.39233 6.886 9.635C6.643 9.87833 6.348 10 6.001 10C5.654 10 5.35883 9.87833 5.1155 9.635C4.87217 9.39167 4.75033 9.09667 4.75 8.75C4.75 8.45067 4.84533 8.18633 5.036 7.957C5.22667 7.72767 5.46467 7.58533 5.75 7.53V6.25H2.375V7.53C2.66033 7.585 2.89833 7.72717 3.089 7.9565C3.27967 8.18617 3.375 8.45067 3.375 8.75C3.375 9.09733 3.25367 9.39233 3.011 9.635C2.768 9.87833 2.473 10 2.126 10ZM2.125 9.5C2.33067 9.5 2.50717 9.4265 2.6545 9.2795C2.8015 9.13217 2.875 8.95567 2.875 8.75C2.875 8.54433 2.8015 8.36783 2.6545 8.2205C2.50717 8.0735 2.33067 8 2.125 8C1.91933 8 1.74283 8.0735 1.5955 8.2205C1.4485 8.36783 1.375 8.54433 1.375 8.75C1.375 8.95567 1.4485 9.13217 1.5955 9.2795C1.74283 9.4265 1.91933 9.5 2.125 9.5ZM2.125 4C2.33067 4 2.50717 3.9265 2.6545 3.7795C2.8015 3.63217 2.875 3.45567 2.875 3.25C2.875 3.04433 2.8015 2.86783 2.6545 2.7205C2.50717 2.5735 2.33067 2.5 2.125 2.5C1.91933 2.5 1.74283 2.5735 1.5955 2.7205C1.4485 2.86783 1.375 3.04433 1.375 3.25C1.375 3.45567 1.4485 3.63217 1.5955 3.7795C1.74283 3.9265 1.91933 4 2.125 4ZM6 9.5C6.20567 9.5 6.38217 9.4265 6.5295 9.2795C6.6765 9.13217 6.75 8.95567 6.75 8.75C6.75 8.54433 6.6765 8.36783 6.5295 8.2205C6.3825 8.07317 6.206 7.99967 6 8C5.794 8.00033 5.6175 8.07383 5.4705 8.2205C5.3235 8.36717 5.25 8.54367 5.25 8.75C5.25 8.95633 5.3235 9.13283 5.4705 9.2795C5.61783 9.4265 5.79433 9.5 6 9.5ZM6 4C6.20567 4 6.38217 3.9265 6.5295 3.7795C6.6765 3.63217 6.75 3.45567 6.75 3.25C6.75 3.04433 6.6765 2.86783 6.5295 2.7205C6.38217 2.5735 6.20567 2.5 6 2.5C5.79433 2.5 5.61783 2.5735 5.4705 2.7205C5.32317 2.8675 5.24967 3.044 5.25 3.25C5.25033 3.456 5.32383 3.6325 5.4705 3.7795C5.61783 3.9265 5.79433 4 6 4ZM9.885 4C10.0907 4 10.267 3.9265 10.414 3.7795C10.561 3.63217 10.6345 3.45567 10.6345 3.25C10.6345 3.04433 10.561 2.86783 10.414 2.7205C10.267 2.5735 10.0905 2.5 9.8845 2.5C9.6785 2.5 9.50217 2.5735 9.3555 2.7205C9.20817 2.86783 9.1345 3.04433 9.1345 3.25C9.1345 3.45567 9.20817 3.63217 9.3555 3.7795C9.5025 3.9265 9.67883 4 9.8845 4" fill="#F97316"/>
</svg>
