<svg width="19" height="19" viewBox="0 0 19 19" fill="none" xmlns="http://www.w3.org/2000/svg">
<path fill-rule="evenodd" clip-rule="evenodd" d="M14.6455 0.990234C14.9734 0.990234 15.2393 1.25607 15.2393 1.58398V3.76107H17.4163C17.7443 3.76107 18.0101 4.0269 18.0101 4.35482C18.0101 4.68274 17.7443 4.94857 17.4163 4.94857H15.2393V7.12565C15.2393 7.45357 14.9734 7.7194 14.6455 7.7194C14.3176 7.7194 14.0518 7.45357 14.0518 7.12565V4.94857H11.8747C11.5467 4.94857 11.2809 4.68274 11.2809 4.35482C11.2809 4.0269 11.5467 3.76107 11.8747 3.76107H14.0518V1.58398C14.0518 1.25607 14.3176 0.990234 14.6455 0.990234Z" fill="#F97316"/>
<<<<<<< HEAD
<path fill-rule="evenodd" clip-rule="evenodd" d="M9.49967 0.990235L9.45425 0.990235C7.62677 0.990224 6.19462 0.990216 5.07719 1.14045C3.93344 1.29422 3.03092 1.61512 2.32253 2.32351C1.61414 3.0319 1.29325 3.93442 1.13947 5.07817C0.98924 6.1956 0.989248 7.62775 0.989258 9.45523V9.54608C0.989248 11.3736 0.98924 12.8057 1.13947 13.9231C1.29325 15.0669 1.61414 15.9694 2.32253 16.6778C3.03092 17.3862 3.93344 17.7071 5.07719 17.8609C6.19462 18.0111 7.62677 18.0111 9.45426 18.0111H9.54509C11.3726 18.0111 12.8047 18.0111 13.9222 17.8609C15.0659 17.7071 15.9684 17.3862 16.6768 16.6778C17.3852 15.9694 17.7061 15.0669 17.8599 13.9231C18.0101 12.8057 18.0101 11.3736 18.0101 9.54607V9.50065C18.0101 9.17273 17.7443 8.9069 17.4163 8.9069C17.0884 8.9069 16.8226 9.17273 16.8226 9.50065C16.8226 11.3834 16.8213 12.7358 16.683 13.7649C16.6775 13.8055 16.6719 13.8455 16.666 13.8848L14.4699 11.9083C13.4412 10.9825 11.9092 10.8903 10.7769 11.686L10.5408 11.852C10.1474 12.1285 9.61214 12.0821 9.2721 11.7421L5.87607 8.34602C4.97721 7.44716 3.53536 7.39915 2.5787 8.23623L2.17753 8.58724C2.18113 7.16836 2.20149 6.09096 2.31638 5.2364C2.45245 4.22433 2.71124 3.61418 3.16222 3.1632C3.6132 2.71222 4.22335 2.45343 5.23542 2.31736C6.26457 2.179 7.61691 2.17773 9.49967 2.17773C9.82759 2.17773 10.0934 1.9119 10.0934 1.58398C10.0934 1.25607 9.82759 0.990235 9.49967 0.990235ZM2.31638 13.7649C2.45245 14.777 2.71124 15.3871 3.16222 15.8381C3.6132 16.2891 4.22335 16.5479 5.23542 16.6839C6.26457 16.8223 7.61691 16.8236 9.49967 16.8236C11.3824 16.8236 12.7348 16.8223 13.7639 16.6839C14.776 16.5479 15.3861 16.2891 15.8371 15.8381C16.0299 15.6453 16.1876 15.4234 16.3156 15.1535C16.2848 15.1347 16.2553 15.1127 16.2275 15.0877L13.6755 12.791C13.0583 12.2355 12.1391 12.1801 11.4597 12.6576L11.2236 12.8235C10.3581 13.4318 9.18049 13.3298 8.43241 12.5817L5.03638 9.18571C4.57958 8.72891 3.84684 8.70452 3.36067 9.12992L2.17706 10.1656C2.1791 11.7081 2.19488 12.8611 2.31638 13.7649Z" fill="#F97316"/>
=======
<path fill-rule="evenodd" clip-rule="evenodd" d="M9.49967 0.990235L9.45425 0.990235C7.62677 0.990224 6.19462 0.990216 5.07719 1.14045C3.93344 1.29422 3.03092 1.61512 2.32253 2.32351C1.61414 3.0319 1.29325 3.93442 1.13947 5.07817C0.98924 6.1956 0.989248 7.62775 0.989258 9.45523V9.54608C0.989248 11.3736 0.98924 12.8057 1.13947 13.9231C1.29325 15.0669 1.61414 15.9694 2.32253 16.6778C3.03092 17.3862 3.93344 17.7071 5.07719 17.8609C6.19462 18.0111 7.62678 18.0111 9.45426 18.0111H9.54509C11.3726 18.0111 12.8047 18.0111 13.9222 17.8609C15.0659 17.7071 15.9684 17.3862 16.6768 16.6778C17.3852 15.9694 17.7061 15.0669 17.8599 13.9231C18.0101 12.8057 18.0101 11.3736 18.0101 9.54607V9.50065C18.0101 9.17273 17.7443 8.9069 17.4163 8.9069C17.0884 8.9069 16.8226 9.17273 16.8226 9.50065C16.8226 11.3834 16.8213 12.7358 16.683 13.7649C16.6775 13.8055 16.6719 13.8455 16.666 13.8848L14.4699 11.9083C13.4412 10.9825 11.9092 10.8903 10.7769 11.686L10.5408 11.852C10.1474 12.1285 9.61214 12.0821 9.2721 11.7421L5.87607 8.34603C4.97721 7.44716 3.53536 7.39915 2.5787 8.23623L2.17753 8.58724C2.18113 7.16836 2.20149 6.09096 2.31638 5.2364C2.45245 4.22433 2.71124 3.61418 3.16222 3.1632C3.6132 2.71222 4.22335 2.45343 5.23542 2.31736C6.26457 2.179 7.61691 2.17773 9.49967 2.17773C9.82759 2.17773 10.0934 1.9119 10.0934 1.58398C10.0934 1.25607 9.82759 0.990235 9.49967 0.990235ZM2.31638 13.7649C2.45245 14.777 2.71124 15.3871 3.16222 15.8381C3.6132 16.2891 4.22335 16.5479 5.23542 16.6839C6.26457 16.8223 7.61691 16.8236 9.49967 16.8236C11.3824 16.8236 12.7348 16.8223 13.7639 16.6839C14.776 16.5479 15.3861 16.2891 15.8371 15.8381C16.0299 15.6453 16.1876 15.4234 16.3156 15.1535C16.2848 15.1347 16.2553 15.1127 16.2275 15.0877L13.6755 12.791C13.0583 12.2355 12.1391 12.1801 11.4597 12.6576L11.2236 12.8235C10.3581 13.4318 9.18049 13.3298 8.43241 12.5817L5.03638 9.18571C4.57958 8.72891 3.84684 8.70452 3.36067 9.12992L2.17706 10.1656C2.1791 11.7081 2.19488 12.8611 2.31638 13.7649Z" fill="#F97316"/>
>>>>>>> 5db1924146ed3550c37bd5305aa382695ebac25a
</svg>
