<svg width="25" height="25" viewBox="0 0 25 25" fill="none" xmlns="http://www.w3.org/2000/svg">
<path d="M8.85464 13.0213L11.4588 15.6255L16.1463 10.938M15.5265 5.1963L15.0265 4.50984C14.7365 4.1117 14.3566 3.78775 13.9176 3.56439C13.4786 3.34104 12.993 3.22461 12.5005 3.22461C12.0079 3.22461 11.5224 3.34104 11.0834 3.56439C10.6444 3.78775 10.2644 4.1117 9.97443 4.50984L9.47443 5.1963L8.63693 5.06401C8.15026 4.9874 7.65238 5.02694 7.18391 5.17941C6.71544 5.33187 6.28965 5.59293 5.94129 5.94129C5.59293 6.28965 5.33187 6.71544 5.17941 7.18391C5.02694 7.65238 4.9874 8.15026 5.06401 8.63693L5.1963 9.47443L4.50984 9.97443C4.1117 10.2644 3.78775 10.6444 3.56439 11.0834C3.34104 11.5224 3.22461 12.0079 3.22461 12.5005C3.22461 12.993 3.34104 13.4786 3.56439 13.9176C3.78775 14.3566 4.1117 14.7365 4.50984 15.0265L5.1963 15.5265L5.06401 16.364C4.9874 16.8507 5.02694 17.3486 5.17941 17.817C5.33187 18.2855 5.59293 18.7113 5.94129 19.0596C6.28965 19.408 6.71544 19.6691 7.18391 19.8215C7.65238 19.974 8.15026 20.0135 8.63693 19.9369L9.47443 19.8046L9.97443 20.4911C10.2644 20.8892 10.6444 21.2132 11.0834 21.4365C11.5224 21.6599 12.0079 21.7763 12.5005 21.7763C12.993 21.7763 13.4786 21.6599 13.9176 21.4365C14.3566 21.2132 14.7365 20.8892 15.0265 20.4911L15.5265 19.8046L16.364 19.9369C16.8507 20.0135 17.3486 19.974 17.817 19.8215C18.2855 19.6691 18.7113 19.408 19.0596 19.0596C19.408 18.7113 19.6691 18.2855 19.8215 17.817C19.974 17.3486 20.0135 16.8507 19.9369 16.364L19.8046 15.5265L20.4911 15.0265C20.8892 14.7365 21.2132 14.3566 21.4365 13.9176C21.6599 13.4786 21.7763 12.993 21.7763 12.5005C21.7763 12.0079 21.6599 11.5224 21.4365 11.0834C21.2132 10.6444 20.8892 10.2644 20.4911 9.97443L19.8046 9.47443L19.9369 8.63693C20.0135 8.15026 19.974 7.65238 19.8215 7.18391C19.6691 6.71544 19.408 6.28965 19.0596 5.94129C18.7113 5.59293 18.2855 5.33187 17.817 5.17941C17.3486 5.02694 16.8507 4.9874 16.364 5.06401L15.5265 5.1963Z" stroke="#656565" stroke-width="2" stroke-linecap="round" stroke-linejoin="round"/>
</svg>
