<svg width="20" height="20" viewBox="0 0 20 20" fill="none" xmlns="http://www.w3.org/2000/svg">
<path d="M14.1665 11.6663C14.6267 11.6663 14.9998 11.2932 14.9998 10.833C14.9998 10.3728 14.6267 9.99967 14.1665 9.99967C13.7063 9.99967 13.3332 10.3728 13.3332 10.833C13.3332 11.2932 13.7063 11.6663 14.1665 11.6663Z" fill="#F97316"/>
<path d="M14.1665 14.9997C14.6267 14.9997 14.9998 14.6266 14.9998 14.1663C14.9998 13.7061 14.6267 13.333 14.1665 13.333C13.7063 13.333 13.3332 13.7061 13.3332 14.1663C13.3332 14.6266 13.7063 14.9997 14.1665 14.9997Z" fill="#F97316"/>
<path d="M10.8332 10.833C10.8332 11.2932 10.4601 11.6663 9.99984 11.6663C9.5396 11.6663 9.1665 11.2932 9.1665 10.833C9.1665 10.3728 9.5396 9.99967 9.99984 9.99967C10.4601 9.99967 10.8332 10.3728 10.8332 10.833Z" fill="#F97316"/>
<path d="M10.8332 14.1663C10.8332 14.6266 10.4601 14.9997 9.99984 14.9997C9.5396 14.9997 9.1665 14.6266 9.1665 14.1663C9.1665 13.7061 9.5396 13.333 9.99984 13.333C10.4601 13.333 10.8332 13.7061 10.8332 14.1663Z" fill="#F97316"/>
<path d="M5.83317 11.6663C6.29341 11.6663 6.6665 11.2932 6.6665 10.833C6.6665 10.3728 6.29341 9.99967 5.83317 9.99967C5.37293 9.99967 4.99984 10.3728 4.99984 10.833C4.99984 11.2932 5.37293 11.6663 5.83317 11.6663Z" fill="#F97316"/>
<path d="M5.83317 14.9997C6.29341 14.9997 6.6665 14.6266 6.6665 14.1663C6.6665 13.7061 6.29341 13.333 5.83317 13.333C5.37293 13.333 4.99984 13.7061 4.99984 14.1663C4.99984 14.6266 5.37293 14.9997 5.83317 14.9997Z" fill="#F97316"/>
<path fill-rule="evenodd" clip-rule="evenodd" d="M5.83317 1.45801C6.17835 1.45801 6.45817 1.73783 6.45817 2.08301V2.71861C7.00984 2.708 7.61761 2.708 8.28605 2.70801H11.7135C12.382 2.708 12.9898 2.708 13.5415 2.71861V2.08301C13.5415 1.73783 13.8213 1.45801 14.1665 1.45801C14.5117 1.45801 14.7915 1.73783 14.7915 2.08301V2.77225C15.0081 2.78876 15.2133 2.80952 15.4074 2.83562C16.3844 2.96698 17.1752 3.24374 17.7988 3.86738C18.4224 4.49101 18.6992 5.2818 18.8306 6.25882C18.9582 7.20816 18.9582 8.42118 18.9582 9.95263V11.7134C18.9582 13.2448 18.9582 14.4579 18.8306 15.4072C18.6992 16.3842 18.4224 17.175 17.7988 17.7986C17.1752 18.4223 16.3844 18.699 15.4074 18.8304C14.458 18.958 13.245 18.958 11.7136 18.958H8.28616C6.75471 18.958 5.54166 18.958 4.59232 18.8304C3.6153 18.699 2.82451 18.4223 2.20087 17.7986C1.57724 17.175 1.30047 16.3842 1.16912 15.4072C1.04148 14.4578 1.04149 13.2448 1.0415 11.7134V9.95266C1.04149 8.42119 1.04148 7.20817 1.16912 6.25882C1.30047 5.2818 1.57724 4.49101 2.20087 3.86738C2.82451 3.24374 3.6153 2.96698 4.59232 2.83562C4.78642 2.80952 4.99155 2.78876 5.20817 2.77225V2.08301C5.20817 1.73783 5.48799 1.45801 5.83317 1.45801ZM4.75888 4.07447C3.92047 4.18719 3.43743 4.39859 3.08476 4.75126C2.73208 5.10393 2.52069 5.58697 2.40797 6.42538C2.38888 6.56737 2.37292 6.71685 2.35957 6.87467H17.6401C17.6268 6.71685 17.6108 6.56737 17.5917 6.42538C17.479 5.58697 17.2676 5.10393 16.9149 4.75126C16.5622 4.39859 16.0792 4.18719 15.2408 4.07447C14.3844 3.95933 13.2555 3.95801 11.6665 3.95801H8.33317C6.74415 3.95801 5.61527 3.95933 4.75888 4.07447ZM2.2915 9.99967C2.2915 9.288 2.29177 8.66861 2.30241 8.12467H17.6973C17.7079 8.66861 17.7082 9.288 17.7082 9.99967V11.6663C17.7082 13.2554 17.7068 14.3842 17.5917 15.2406C17.479 16.079 17.2676 16.5621 16.9149 16.9148C16.5622 17.2674 16.0792 17.4788 15.2408 17.5915C14.3844 17.7067 13.2555 17.708 11.6665 17.708H8.33317C6.74415 17.708 5.61526 17.7067 4.75888 17.5915C3.92047 17.4788 3.43743 17.2674 3.08476 16.9148C2.73208 16.5621 2.52069 16.079 2.40797 15.2406C2.29283 14.3842 2.2915 13.2554 2.2915 11.6663V9.99967Z" fill="#F97316"/>
</svg>
