<svg width="18" height="18" viewBox="0 0 18 18" fill="none" xmlns="http://www.w3.org/2000/svg">
<path fill-rule="evenodd" clip-rule="evenodd" d="M3.9375 6.97708V6C3.9375 3.20406 6.20406 0.9375 9 0.9375C11.7959 0.9375 14.0625 3.20406 14.0625 6V6.97708C14.2326 6.98904 14.393 7.00461 14.5438 7.02489C15.2189 7.11565 15.7873 7.30982 16.2387 7.76126C16.6902 8.2127 16.8843 8.78111 16.9751 9.45619C17.0625 10.1064 17.0625 10.9332 17.0625 11.9588V12.0412C17.0625 13.0668 17.0625 13.8936 16.9751 14.5438C16.8843 15.2189 16.6902 15.7873 16.2387 16.2387C15.7873 16.6902 15.2189 16.8843 14.5438 16.9751C13.8936 17.0625 13.0668 17.0625 12.0412 17.0625H5.95885C4.93316 17.0625 4.10641 17.0625 3.45619 16.9751C2.78111 16.8843 2.2127 16.6902 1.76126 16.2387C1.30983 15.7873 1.11566 15.2189 1.02489 14.5438C0.937473 13.8936 0.937485 13.0669 0.9375 12.0412V11.9588C0.937485 10.9332 0.937473 10.1064 1.02489 9.45619C1.11566 8.78111 1.30983 8.2127 1.76126 7.76126C2.2127 7.30982 2.78111 7.11565 3.45619 7.02489C3.60703 7.00461 3.76738 6.98904 3.9375 6.97708ZM5.0625 6C5.0625 3.82538 6.82538 2.0625 9 2.0625C11.1746 2.0625 12.9375 3.82538 12.9375 6V6.94008C12.6574 6.93749 12.3588 6.9375 12.0412 6.9375H5.95885C5.64121 6.9375 5.34265 6.93749 5.0625 6.94008V6ZM2.55676 8.55676C2.76433 8.34918 3.05576 8.21385 3.60609 8.13986C4.1726 8.06369 4.92344 8.0625 6 8.0625H12C13.0766 8.0625 13.8274 8.06369 14.3939 8.13986C14.9442 8.21385 15.2357 8.34918 15.4432 8.55676C15.6508 8.76433 15.7862 9.05576 15.8601 9.60609C15.9363 10.1726 15.9375 10.9234 15.9375 12C15.9375 13.0766 15.9363 13.8274 15.8601 14.3939C15.7862 14.9442 15.6508 15.2357 15.4432 15.4432C15.2357 15.6508 14.9442 15.7861 14.3939 15.8601C13.8274 15.9363 13.0766 15.9375 12 15.9375H6C4.92344 15.9375 4.1726 15.9363 3.60609 15.8601C3.05576 15.7861 2.76433 15.6508 2.55676 15.4432C2.34919 15.2357 2.21385 14.9442 2.13986 14.3939C2.0637 13.8274 2.0625 13.0766 2.0625 12C2.0625 10.9234 2.0637 10.1726 2.13986 9.60609C2.21385 9.05576 2.34919 8.76433 2.55676 8.55676Z" fill="#4B5563"/>
</svg>
