<svg width="30" height="30" viewBox="0 0 30 30" fill="none" xmlns="http://www.w3.org/2000/svg">
<path d="M25.001 18.9222V22C25.001 22.4659 25.001 22.6989 24.9249 22.8827C24.8234 23.1277 24.6287 23.3224 24.3837 23.4239C24.1999 23.5 23.9669 23.5 23.501 23.5C23.0351 23.5 22.8021 23.5 22.6183 23.4239C22.3733 23.3224 22.1786 23.1277 22.0771 22.8827C22.001 22.6989 22.001 22.4659 22.001 22C22.001 21.5341 22.001 21.3011 21.9249 21.1173C21.8234 20.8723 21.6287 20.6776 21.3837 20.5761C21.1999 20.5 20.9669 20.5 20.501 20.5H9.50098C9.03504 20.5 8.80207 20.5 8.6183 20.5761C8.37327 20.6776 8.17859 20.8723 8.0771 21.1173C8.00098 21.3011 8.00098 21.5341 8.00098 22C8.00098 22.4659 8.00098 22.6989 7.92486 22.8827C7.82337 23.1277 7.62869 23.3224 7.38366 23.4239C7.19989 23.5 6.96692 23.5 6.50098 23.5C6.03504 23.5 5.80207 23.5 5.6183 23.4239C5.37327 23.3224 5.17859 23.1277 5.0771 22.8827C5.00098 22.6989 5.00098 22.4659 5.00098 22V18.9222C5.00098 17.72 5.00098 17.1188 5.17261 16.552C5.34424 15.9851 5.67769 15.4849 6.34458 14.4846L7.00098 13.5L7.96252 11.1923C8.70824 9.40257 9.08111 8.5077 9.83688 8.00385C10.5926 7.5 11.5621 7.5 13.501 7.5H16.501C18.4399 7.5 19.4093 7.5 20.1651 8.00385C20.9209 8.5077 21.2937 9.40257 22.0395 11.1923L23.001 13.5L23.6574 14.4846C24.3243 15.4849 24.6577 15.9851 24.8294 16.552C25.001 17.1188 25.001 17.72 25.001 18.9222Z" stroke="#4B5563" stroke-width="1.5" stroke-linecap="round" stroke-linejoin="round"/>
<path d="M9.12598 17.5H9.00098M9.25098 17.5C9.25098 17.6381 9.13905 17.75 9.00098 17.75C8.86291 17.75 8.75098 17.6381 8.75098 17.5C8.75098 17.3619 8.86291 17.25 9.00098 17.25C9.13905 17.25 9.25098 17.3619 9.25098 17.5Z" stroke="#4B5563" stroke-width="1.5" stroke-linecap="round" stroke-linejoin="round"/>
<path d="M21.126 17.5H21.001M21.251 17.5C21.251 17.6381 21.1391 17.75 21.001 17.75C20.8629 17.75 20.751 17.6381 20.751 17.5C20.751 17.3619 20.8629 17.25 21.001 17.25C21.1391 17.25 21.251 17.3619 21.251 17.5Z" stroke="#4B5563" stroke-width="1.5" stroke-linecap="round" stroke-linejoin="round"/>
<path d="M5.00098 12L7.00098 13.5L9.00098 14H21.001L23.001 13.5L25.001 12" stroke="#4B5563" stroke-width="1.5" stroke-linecap="round" stroke-linejoin="round"/>
</svg>
