<svg width="17" height="13" viewBox="0 0 17 13" fill="none" xmlns="http://www.w3.org/2000/svg">
<path d="M15.4062 12.8571H1.59375C0.711875 12.8571 0 12.1393 0 11.25V1.60714C0 0.717857 0.711875 0 1.59375 0H15.4062C16.2881 0 17 0.717857 17 1.60714V11.25C17 12.1393 16.2881 12.8571 15.4062 12.8571ZM1.59375 1.07143C1.29625 1.07143 1.0625 1.30714 1.0625 1.60714V11.25C1.0625 11.55 1.29625 11.7857 1.59375 11.7857H15.4062C15.7037 11.7857 15.9375 11.55 15.9375 11.25V1.60714C15.9375 1.30714 15.7037 1.07143 15.4062 1.07143H1.59375Z" fill="#D6D6D6"/>
</svg>
