<svg width="20" height="20" viewBox="0 0 20 20" fill="none" xmlns="http://www.w3.org/2000/svg">
<path d="M4.1665 7.09585C4.1665 4.09758 6.77818 1.66699 9.99984 1.66699C13.2215 1.66699 15.8332 4.09758 15.8332 7.09585C15.8332 10.0706 13.9714 13.5419 11.0666 14.7833C10.3894 15.0727 9.61027 15.0727 8.93312 14.7833C6.0283 13.5419 4.1665 10.0706 4.1665 7.09585Z" stroke="#F97316" stroke-width="1.5"/>
<path d="M11.6668 7.49967C11.6668 8.42015 10.9206 9.16634 10.0002 9.16634C9.07969 9.16634 8.3335 8.42015 8.3335 7.49967C8.3335 6.5792 9.07969 5.83301 10.0002 5.83301C10.9206 5.83301 11.6668 6.5792 11.6668 7.49967Z" stroke="#F97316" stroke-width="1.5"/>
<path d="M17.4669 12.917C18.0214 13.4191 18.3332 13.985 18.3332 14.5837C18.3332 16.6547 14.6022 18.3337 9.99984 18.3337C5.39746 18.3337 1.6665 16.6547 1.6665 14.5837C1.6665 13.985 1.97827 13.4191 2.53273 12.917" stroke="#F97316" stroke-width="1.5" stroke-linecap="round"/>
</svg>
