<svg width="21" height="15" viewBox="0 0 21 15" fill="none" xmlns="http://www.w3.org/2000/svg">
<path d="M16.164 5.25L15.9615 5.178L14.259 1.986C13.9392 1.38614 13.4624 0.884473 12.8796 0.534659C12.2967 0.184844 11.6298 3.62403e-05 10.95 3.12456e-09H6.663C5.87576 -3.21241e-05 5.10848 0.24769 4.46988 0.70806C3.83128 1.16843 3.35377 1.8181 3.105 2.565L2.2935 4.9995C1.61363 5.28606 1.0334 5.7668 0.625437 6.38154C0.217477 6.99628 -8.04845e-05 7.71771 2.23355e-08 8.4555V10.125C2.23355e-08 11.19 0.6345 12.105 1.545 12.5175C1.66291 13.1931 2.00871 13.8078 2.52482 14.2594C3.04092 14.711 3.69616 14.9722 4.3814 14.9993C5.06664 15.0265 5.74051 14.8181 6.29077 14.4088C6.84102 13.9996 7.23444 13.4141 7.4055 12.75H13.5945C13.7656 13.4141 14.159 13.9996 14.7092 14.4088C15.2595 14.8181 15.9334 15.0265 16.6186 14.9993C17.3038 14.9722 17.9591 14.711 18.4752 14.2594C18.9913 13.8078 19.3371 13.1931 19.455 12.5175C19.9154 12.3097 20.3061 11.9734 20.5802 11.549C20.8542 11.1246 21 10.6302 21 10.125V9.6165C20.9999 8.84238 20.7602 8.08727 20.3138 7.4548C19.8675 6.82232 19.2363 6.34348 18.507 6.084L16.242 5.2785V5.25H16.164ZM6.663 1.5H8.25V5.25H3.7905L4.527 3.039C4.67633 2.59067 4.96302 2.20073 5.34642 1.92448C5.72981 1.64824 6.19045 1.49973 6.663 1.5ZM9.75 1.5H10.95C11.3579 1.49985 11.7582 1.6106 12.108 1.82038C12.4578 2.03017 12.744 2.3311 12.936 2.691L14.301 5.25H9.75V1.5ZM15.9045 6.75L18.0045 7.497C18.442 7.65274 18.8207 7.94006 19.0884 8.31954C19.3562 8.69902 19.5 9.15207 19.5 9.6165V10.125C19.5 10.3875 19.41 10.629 19.26 10.821C19.0143 10.2443 18.5941 9.75904 18.0585 9.4334C17.5228 9.10776 16.8986 8.95809 16.2735 9.00543C15.6485 9.05276 15.0539 9.29471 14.5734 9.69729C14.0929 10.0999 13.7506 10.6429 13.5945 11.25H7.4055C7.24944 10.6429 6.90711 10.0999 6.4266 9.69729C5.9461 9.29471 5.35155 9.05276 4.72647 9.00543C4.10139 8.95809 3.47719 9.10776 2.94154 9.4334C2.40589 9.75904 1.9857 10.2443 1.74 10.821C1.5842 10.6225 1.49968 10.3774 1.5 10.125V8.4555C1.5 7.7805 1.8 7.1655 2.28 6.75H15.9045ZM3 12C3 11.6022 3.15804 11.2206 3.43934 10.9393C3.72064 10.658 4.10218 10.5 4.5 10.5C4.89782 10.5 5.27936 10.658 5.56066 10.9393C5.84196 11.2206 6 11.6022 6 12C6 12.3978 5.84196 12.7794 5.56066 13.0607C5.27936 13.342 4.89782 13.5 4.5 13.5C4.10218 13.5 3.72064 13.342 3.43934 13.0607C3.15804 12.7794 3 12.3978 3 12ZM16.5 10.5C16.8978 10.5 17.2794 10.658 17.5607 10.9393C17.842 11.2206 18 11.6022 18 12C18 12.3978 17.842 12.7794 17.5607 13.0607C17.2794 13.342 16.8978 13.5 16.5 13.5C16.1022 13.5 15.7206 13.342 15.4393 13.0607C15.158 12.7794 15 12.3978 15 12C15 11.6022 15.158 11.2206 15.4393 10.9393C15.7206 10.658 16.1022 10.5 16.5 10.5Z" fill="black"/>
</svg>
