<svg width="38" height="38" viewBox="0 0 38 38" fill="none" xmlns="http://www.w3.org/2000/svg">
<rect width="38" height="38" rx="12" fill="#111827"/>
<g clip-path="url(#clip0_529_15826)">
<path d="M26.5046 9.55469H10.4724C9.96073 9.55469 9.4917 10.0238 9.4917 10.5781V12.3691C9.4917 12.9235 9.96073 13.3926 10.4724 13.3926H26.5046C27.0589 13.3926 27.4852 12.9235 27.5279 12.3691V10.5781C27.5279 10.0238 27.0589 9.55469 26.5046 9.55469ZM26.5046 19.6185H10.4724C10.2166 19.6185 9.96073 19.7464 9.74753 19.917C9.57698 20.0876 9.4917 20.3434 9.4917 20.6419V22.4329C9.4917 22.9873 9.96073 23.4564 10.4724 23.4564H26.5046C27.0589 23.4564 27.4852 23.0299 27.5279 22.4329V20.6419C27.5279 20.0449 27.0589 19.6185 26.5046 19.6185ZM19.5118 24.6504H10.4724C10.2166 24.6504 9.96073 24.7357 9.79017 24.9489C9.61962 25.1195 9.4917 25.3753 9.4917 25.6738V27.4648C9.4917 28.0192 9.96073 28.4883 10.4724 28.4883H19.4692C20.0235 28.4883 20.4499 28.0192 20.4499 27.4648V25.6312C20.4925 25.0768 20.0661 24.6504 19.5118 24.6504ZM27.5279 14.5866H10.4724C10.2166 14.5866 9.96073 14.6719 9.79017 14.8851C9.61962 15.0557 9.4917 15.3115 9.4917 15.61V17.401C9.4917 17.9554 9.96073 18.4245 10.4724 18.4245H27.4852C28.0396 18.4245 28.4659 17.9554 28.4659 17.401V15.61C28.5086 15.0557 28.0822 14.5866 27.5279 14.5866Z" fill="#00C3F7"/>
</g>
<defs>
<clipPath id="clip0_529_15826">
<rect width="19.0169" height="18.8909" fill="white" transform="translate(9.4917 9.55469)"/>
</clipPath>
</defs>
</svg>
