<svg width="30" height="30" viewBox="0 0 30 30" fill="none" xmlns="http://www.w3.org/2000/svg">
<path fill-rule="evenodd" clip-rule="evenodd" d="M7.16585 2.55388C8.68752 1.04085 11.193 1.31017 12.4671 3.01215L14.0434 5.11765C15.0801 6.50251 14.9886 8.43802 13.758 9.66166L13.4595 9.95843C13.4465 9.9963 13.4149 10.1153 13.45 10.3415C13.529 10.8509 13.9543 11.9314 15.74 13.7069C17.525 15.4818 18.6132 15.9067 19.1298 15.9859C19.3639 16.0218 19.4863 15.9884 19.5242 15.9752L20.0342 15.468C21.1283 14.3802 22.8093 14.1769 24.1638 14.9132L26.552 16.2115C28.5969 17.3231 29.1136 20.1028 27.4382 21.7686L25.6625 23.5342C25.103 24.0905 24.3506 24.5544 23.4324 24.64C21.1712 24.8508 15.8984 24.5818 10.3582 19.0731C5.18585 13.9301 4.19327 9.44513 4.06768 7.23534L5.00367 7.18215L4.06768 7.23534C4.00418 6.11795 4.5322 5.17257 5.20385 4.50474L7.16585 2.55388ZM10.9661 4.13583C10.3329 3.2899 9.15251 3.22264 8.4879 3.88347L6.5259 5.83433C6.1135 6.24439 5.91508 6.69631 5.93966 7.12895C6.03945 8.8847 6.84107 12.9318 11.6803 17.7435C16.7571 22.7915 21.4461 22.9421 23.2584 22.7731C23.6287 22.7386 23.9969 22.5462 24.3404 22.2047L26.1161 20.439C26.838 19.7213 26.6787 18.4145 25.6565 17.8588L23.2683 16.5606C22.6089 16.2021 21.8363 16.3204 21.3563 16.7976L20.787 17.3637L20.126 16.6989C20.787 17.3637 20.7861 17.3646 20.7852 17.3655L20.7834 17.3673L20.7796 17.371L20.7714 17.3788L20.7531 17.3959C20.74 17.4079 20.7249 17.421 20.708 17.4351C20.674 17.4632 20.6323 17.495 20.5823 17.5285C20.4823 17.5955 20.3501 17.6684 20.1841 17.7303C19.8455 17.8564 19.399 17.9242 18.8455 17.8393C17.762 17.6731 16.3267 16.9344 14.4179 15.0365C12.5098 13.1392 11.7649 11.7105 11.5971 10.6289C11.5113 10.0759 11.5798 9.62926 11.7074 9.29044C11.77 9.12438 11.8437 8.99235 11.9114 8.89249C11.9451 8.84268 11.9772 8.80104 12.0056 8.76723C12.0198 8.75031 12.033 8.73534 12.045 8.72225L12.0622 8.70402L12.0701 8.69594L12.0738 8.69216L12.0756 8.69034C12.0765 8.68944 12.0774 8.68855 12.7384 9.35335L12.0774 8.68855L12.4359 8.33207C12.9717 7.79936 13.0467 6.91505 12.5424 6.24133L10.9661 4.13583Z" fill="#111827"/>
</svg>
