<svg width="50" height="50" viewBox="0 0 50 50" fill="none" xmlns="http://www.w3.org/2000/svg">
<path fill-rule="evenodd" clip-rule="evenodd" d="M25 2.60449C37.3689 2.60449 47.3955 12.6311 47.3955 25C47.3955 37.3689 37.3689 47.3955 25 47.3955C12.6311 47.3955 2.60449 37.3689 2.60449 25C2.60449 12.6311 12.6311 2.60449 25 2.60449ZM25 5.72949C14.357 5.72949 5.72949 14.357 5.72949 25C5.72949 35.643 14.357 44.2705 25 44.2705C35.643 44.2705 44.2705 35.643 44.2705 25C44.2705 14.357 35.643 5.72949 25 5.72949ZM25 31.25C26.1505 31.25 27.0828 32.1826 27.083 33.333C27.083 34.4836 26.1506 35.417 25 35.417C23.8494 35.417 22.917 34.4836 22.917 33.333C22.9172 32.1826 23.8495 31.25 25 31.25ZM25 13.0205C28.0202 13.0205 30.4686 15.4691 30.4688 18.4893C30.4688 20.3709 29.5177 22.0294 28.0762 23.0117L27.4883 23.3848C27.2101 23.5736 26.9787 23.7711 26.8135 23.9658C26.5994 24.218 26.5625 24.3828 26.5625 24.4795V27.083C26.5625 27.946 25.8629 28.6455 25 28.6455C24.1371 28.6455 23.4375 27.946 23.4375 27.083V24.4795C23.4375 23.4256 23.8992 22.5697 24.4307 21.9434C24.9557 21.3248 25.6102 20.8521 26.1904 20.5088C26.8841 20.0984 27.3438 19.3466 27.3438 18.4893C27.3436 17.195 26.2943 16.1455 25 16.1455C23.7057 16.1455 22.6564 17.195 22.6562 18.4893C22.6562 19.3522 21.9567 20.0518 21.0938 20.0518C20.2308 20.0518 19.5312 19.3522 19.5312 18.4893C19.5314 15.4691 21.9798 13.0205 25 13.0205Z" fill="#F97316"/>
</svg>
