<svg width="40" height="28" viewBox="0 0 40 28" fill="none" xmlns="http://www.w3.org/2000/svg">
<path d="M29.3958 17.625C25.186 15.64 23.6667 13.875 23.6667 8.875C23.6667 3.875 26.5313 0.75 31.1146 0.75C35.6979 0.75 38.5625 3.875 38.5625 8.875C38.5625 17.625 36.2708 20.75 27.1042 27C29.3958 22.625 29.3958 21.375 29.3958 17.625ZM6.47917 17.625C2.26938 15.64 0.75 13.875 0.75 8.875C0.75 3.875 3.61458 0.75 8.19792 0.75C12.7813 0.75 15.6458 3.875 15.6458 8.875C15.6458 17.625 13.3542 20.75 4.1875 27C6.47917 22.625 6.47917 21.375 6.47917 17.625Z" stroke="#F97316" stroke-width="1.5" stroke-linecap="round" stroke-linejoin="round"/>
</svg>
