<svg width="25" height="25" viewBox="0 0 25 25" fill="none" xmlns="http://www.w3.org/2000/svg">
<rect width="25" height="25" rx="12.5" fill="#E9E9E9"/>
<path d="M14.2847 11.6241C14.4456 11.4438 14.43 11.1673 14.2497 11.0063C14.0695 10.8454 13.7929 10.8611 13.632 11.0413L11.875 13.0091L11.368 12.4413C11.2071 12.2611 10.9305 12.2454 10.7503 12.4063C10.57 12.5673 10.5544 12.8438 10.7153 13.0241L11.5487 13.9574C11.6317 14.0504 11.7504 14.1035 11.875 14.1035C11.9996 14.1035 12.1183 14.0504 12.2013 13.9574L14.2847 11.6241Z" fill="#111827"/>
<path fill-rule="evenodd" clip-rule="evenodd" d="M12.5 6.22852C11.9531 6.22852 11.4309 6.40736 10.5886 6.69583L10.1643 6.8411C9.30019 7.13688 8.63332 7.36515 8.15593 7.55909C7.91546 7.65678 7.70871 7.75141 7.54224 7.84809C7.38203 7.94113 7.22131 8.05717 7.11212 8.21275C7.00419 8.36653 6.94838 8.55558 6.91331 8.73756C6.87685 8.92676 6.85486 9.15372 6.84067 9.41431C6.8125 9.93173 6.8125 10.6406 6.8125 11.56V12.4943C6.8125 16.0533 9.50052 17.7596 11.099 18.4578L11.1148 18.4648C11.313 18.5514 11.4994 18.6328 11.7134 18.6876C11.9395 18.7454 12.1796 18.7702 12.5 18.7702C12.8204 18.7702 13.0605 18.7454 13.2866 18.6876C13.5006 18.6328 13.6869 18.5514 13.8851 18.4648L13.901 18.4578C15.4995 17.7596 18.1875 16.0533 18.1875 12.4943V11.5601C18.1875 10.6406 18.1875 9.93175 18.1593 9.41431C18.1451 9.15372 18.1232 8.92676 18.0867 8.73756C18.0516 8.55558 17.9958 8.36653 17.8879 8.21275C17.7787 8.05717 17.618 7.94113 17.4578 7.84809C17.2913 7.75141 17.0845 7.65678 16.8441 7.55909C16.3667 7.36515 15.6998 7.13688 14.8357 6.84109L14.4114 6.69583C13.5691 6.40736 13.0469 6.22852 12.5 6.22852ZM10.797 7.54936C11.7388 7.22697 12.1163 7.10352 12.5 7.10352C12.8837 7.10352 13.2612 7.22697 14.203 7.54936L14.5371 7.66373C15.4195 7.96576 16.0629 8.18621 16.5147 8.36975C16.7402 8.46136 16.9036 8.53813 17.0183 8.60474C17.075 8.63763 17.114 8.66476 17.14 8.68594C17.1621 8.70388 17.1705 8.71405 17.1717 8.71555C17.1729 8.71736 17.1801 8.72948 17.1903 8.75816C17.202 8.79089 17.2149 8.83782 17.2275 8.90313C17.253 9.03534 17.2723 9.21694 17.2856 9.46188C17.3123 9.95258 17.3125 10.6375 17.3125 11.5757V12.4943C17.3125 15.5131 15.0551 16.9989 13.5507 17.656C13.334 17.7507 13.2089 17.8042 13.0696 17.8399C12.9365 17.874 12.7742 17.8952 12.5 17.8952C12.2258 17.8952 12.0635 17.874 11.9304 17.8399C11.7911 17.8042 11.666 17.7507 11.4493 17.656C9.94494 16.9989 7.6875 15.5131 7.6875 12.4943V11.5757C7.6875 10.6375 7.68766 9.95258 7.71438 9.46188C7.72772 9.21694 7.74702 9.03534 7.7725 8.90313C7.78509 8.83782 7.79801 8.79089 7.80967 8.75816C7.81988 8.7295 7.82713 8.71738 7.82825 8.71555C7.82946 8.71407 7.83788 8.7039 7.85997 8.68594C7.88603 8.66476 7.92505 8.63763 7.98167 8.60474C8.09636 8.53813 8.25975 8.46136 8.48526 8.36975C8.93706 8.18621 9.58054 7.96576 10.4629 7.66373L10.797 7.54936Z" fill="#111827"/>
</svg>
