<svg width="25" height="25" viewBox="0 0 25 25" fill="none" xmlns="http://www.w3.org/2000/svg">
<rect width="25" height="25" rx="12.5" fill="#E9E9E9"/>
<path fill-rule="evenodd" clip-rule="evenodd" d="M11.8867 6.22852H13.114C13.6381 6.2285 14.0751 6.22848 14.4221 6.27513C14.7883 6.32437 15.119 6.43268 15.3846 6.69837C15.6503 6.96406 15.7586 7.29469 15.8079 7.6609C15.8211 7.75953 15.8306 7.86543 15.8374 7.97854C16.1812 7.97873 16.4719 7.98097 16.7114 8.00534C16.9876 8.03344 17.2439 8.09452 17.4749 8.24887C17.65 8.36591 17.8004 8.5163 17.9175 8.69146C18.0718 8.92245 18.1329 9.17875 18.161 9.45495C18.1878 9.71881 18.1878 10.0447 18.1878 10.4353V17.8952H18.3337C18.5753 17.8952 18.7712 18.0911 18.7712 18.3327C18.7712 18.5743 18.5753 18.7702 18.3337 18.7702H6.66699C6.42537 18.7702 6.22949 18.5743 6.22949 18.3327C6.22949 18.0911 6.42537 17.8952 6.66699 17.8952H6.81283L6.81283 10.4353C6.81282 10.0447 6.81281 9.7188 6.83965 9.45495C6.86775 9.17875 6.92883 8.92245 7.08318 8.69146C7.20021 8.5163 7.35061 8.36591 7.52577 8.24887C7.75676 8.09452 8.01306 8.03344 8.28925 8.00534C8.52879 7.98097 8.81946 7.97873 9.16323 7.97854C9.17003 7.86543 9.17951 7.75953 9.19277 7.6609C9.24201 7.29469 9.35032 6.96406 9.61601 6.69837C9.8817 6.43268 10.2123 6.32437 10.5785 6.27513C10.9255 6.22848 11.3625 6.2285 11.8867 6.22852ZM9.14617 8.85358C8.80632 8.85396 8.56624 8.85668 8.37781 8.87585C8.1708 8.89691 8.07515 8.93413 8.01189 8.9764C7.93227 9.0296 7.86391 9.09796 7.81071 9.17758C7.76844 9.24084 7.73122 9.33649 7.71016 9.5435C7.68835 9.75782 7.68783 10.0389 7.68783 10.4577V17.8952H9.14616V14.1035H8.70866C8.46703 14.1035 8.27116 13.9076 8.27116 13.666C8.27116 13.4244 8.46703 13.2285 8.70866 13.2285H9.14616V12.3535H8.70866C8.46703 12.3535 8.27116 12.1576 8.27116 11.916C8.27116 11.6744 8.46703 11.4785 8.70866 11.4785H9.14616V10.6035H8.70866C8.46703 10.6035 8.27116 10.4076 8.27116 10.166C8.27116 9.92439 8.46703 9.72852 8.70866 9.72852H9.14616L9.14616 8.96902C9.14616 8.93006 9.14616 8.89158 9.14617 8.85358ZM10.0212 17.8952H12.0628V16.5827C12.0628 16.3411 12.2587 16.1452 12.5003 16.1452C12.742 16.1452 12.9378 16.3411 12.9378 16.5827V17.8952H14.9795V8.99935C14.9795 8.43701 14.9786 8.05927 14.9407 7.7775C14.9045 7.50831 14.8419 7.3931 14.7659 7.31709C14.6899 7.24107 14.5747 7.17852 14.3055 7.14233C14.0237 7.10445 13.646 7.10352 13.0837 7.10352H11.917C11.3547 7.10352 10.9769 7.10445 10.6951 7.14233C10.426 7.17852 10.3107 7.24107 10.2347 7.31708C10.1587 7.3931 10.0962 7.50831 10.06 7.7775C10.0221 8.05927 10.0212 8.43701 10.0212 8.99935V17.8952ZM15.8545 10.6035H16.292C16.5336 10.6035 16.7295 10.4076 16.7295 10.166C16.7295 9.92439 16.5336 9.72852 16.292 9.72852H15.8545L15.8545 8.96902C15.8545 8.93006 15.8545 8.89158 15.8545 8.85358C16.1943 8.85396 16.4344 8.85668 16.6228 8.87585C16.8299 8.89691 16.9255 8.93413 16.9888 8.9764C17.0684 9.0296 17.1367 9.09796 17.1899 9.17758C17.2322 9.24084 17.2694 9.33649 17.2905 9.5435C17.3123 9.75782 17.3128 10.0389 17.3128 10.4577V17.8952H15.8545V14.1035H16.292C16.5336 14.1035 16.7295 13.9076 16.7295 13.666C16.7295 13.4244 16.5336 13.2285 16.292 13.2285H15.8545V12.3535H16.292C16.5336 12.3535 16.7295 12.1576 16.7295 11.916C16.7295 11.6744 16.5336 11.4785 16.292 11.4785H15.8545V10.6035ZM12.5003 8.85352C12.0976 8.85352 11.7712 9.17998 11.7712 9.58268C11.7712 9.98539 12.0976 10.3119 12.5003 10.3119C12.903 10.3119 13.2295 9.98539 13.2295 9.58268C13.2295 9.17998 12.903 8.85352 12.5003 8.85352ZM10.8962 9.58268C10.8962 8.69673 11.6144 7.97852 12.5003 7.97852C13.3863 7.97852 14.1045 8.69673 14.1045 9.58268C14.1045 10.4686 13.3863 11.1868 12.5003 11.1868C11.6144 11.1868 10.8962 10.4686 10.8962 9.58268ZM10.8962 12.4993C10.8962 12.2577 11.092 12.0618 11.3337 12.0618H13.667C13.9086 12.0618 14.1045 12.2577 14.1045 12.4993C14.1045 12.741 13.9086 12.9368 13.667 12.9368H11.3337C11.092 12.9368 10.8962 12.741 10.8962 12.4993ZM10.8962 14.2493C10.8962 14.0077 11.092 13.8118 11.3337 13.8118H13.667C13.9086 13.8118 14.1045 14.0077 14.1045 14.2493C14.1045 14.491 13.9086 14.6868 13.667 14.6868H11.3337C11.092 14.6868 10.8962 14.491 10.8962 14.2493Z" fill="#111827"/>
</svg>
