<svg width="15" height="15" viewBox="0 0 15 15" fill="none" xmlns="http://www.w3.org/2000/svg">
<g clip-path="url(#clip0_1545_2468)">
<path fill-rule="evenodd" clip-rule="evenodd" d="M7.5 1.71875C7.08891 1.71875 6.68447 1.85102 5.67538 2.19644L5.31738 2.31898C4.37201 2.64259 3.68256 2.87878 3.1985 3.07543C2.95688 3.17359 2.78181 3.25584 2.65893 3.32721C2.59826 3.36244 2.55646 3.39151 2.52854 3.4142C2.50487 3.43345 2.49585 3.44434 2.49456 3.44593C2.49335 3.44789 2.48558 3.46088 2.47464 3.49158C2.46215 3.52665 2.44831 3.57693 2.43482 3.64691C2.40753 3.78856 2.38684 3.98313 2.37255 4.24557C2.34392 4.77132 2.34375 5.50521 2.34375 6.51041V7.4946C2.34375 10.729 4.76243 12.3209 6.37424 13.025C6.60642 13.1264 6.74049 13.1838 6.88975 13.222C7.0323 13.2585 7.20625 13.2812 7.5 13.2812C7.79375 13.2812 7.9677 13.2585 8.11025 13.222C8.25951 13.1838 8.39358 13.1264 8.62576 13.025C10.2376 12.3209 12.6562 10.729 12.6562 7.4946V6.51041C12.6562 5.50521 12.6561 4.77132 12.6274 4.24557C12.6132 3.98313 12.5925 3.78856 12.5652 3.64691C12.5517 3.57693 12.5378 3.52665 12.5254 3.49158C12.5144 3.46086 12.5066 3.44787 12.5054 3.44593C12.5041 3.44432 12.4951 3.43343 12.4715 3.4142C12.4435 3.39151 12.4017 3.36244 12.3411 3.32721C12.2182 3.25584 12.0431 3.17359 11.8015 3.07543C11.3174 2.87878 10.628 2.64259 9.68262 2.31898L9.32462 2.19644C8.31553 1.85102 7.91109 1.71875 7.5 1.71875ZM5.45212 1.28195C6.35458 0.972864 6.91405 0.78125 7.5 0.78125C8.08595 0.78125 8.64543 0.972865 9.54788 1.28195C9.57437 1.29102 9.60115 1.30019 9.62823 1.30946L10.0025 1.43758C10.9284 1.7545 11.6429 1.99908 12.1544 2.20687C12.412 2.31154 12.6335 2.41292 12.8119 2.5165C12.9835 2.61619 13.1557 2.74053 13.2727 2.90721C13.3884 3.07198 13.4482 3.27453 13.4857 3.46951C13.5248 3.67222 13.5484 3.9154 13.5636 4.1946C13.5938 4.749 13.5938 5.5085 13.5938 6.49364V7.4946C13.5938 11.3078 10.7137 13.136 9.00104 13.8841L8.9841 13.8915C8.77173 13.9843 8.57211 14.0715 8.34275 14.1302C8.10058 14.1922 7.84329 14.2188 7.5 14.2188C7.15671 14.2188 6.89942 14.1922 6.65725 14.1302C6.42789 14.0715 6.22827 13.9843 6.01589 13.8915L5.99896 13.8841C4.28627 13.1359 1.40625 11.3078 1.40625 7.4946V6.49369C1.40625 5.50853 1.40625 4.74901 1.43644 4.1946C1.45164 3.9154 1.47519 3.67222 1.51426 3.46951C1.55183 3.27453 1.61163 3.07198 1.72727 2.90721C1.84426 2.74053 2.01646 2.61619 2.18811 2.5165C2.36648 2.41292 2.58799 2.31154 2.84564 2.20687C3.35713 1.99908 4.07164 1.7545 4.99747 1.43759L5.37177 1.30946C5.39885 1.30019 5.42563 1.29102 5.45212 1.28195Z" fill="#9CA3AF"/>
</g>
<defs>
<clipPath id="clip0_1545_2468">
<rect width="15" height="15" fill="white"/>
</clipPath>
</defs>
</svg>
