<svg width="20" height="20" viewBox="0 0 20 20" fill="none" xmlns="http://www.w3.org/2000/svg">
<path fill-rule="evenodd" clip-rule="evenodd" d="M10.0003 1.0415C10.3455 1.0415 10.6253 1.32133 10.6253 1.6665V3.33317C10.6253 3.67835 10.3455 3.95817 10.0003 3.95817C9.65515 3.95817 9.37533 3.67835 9.37533 3.33317V1.6665C9.37533 1.32133 9.65515 1.0415 10.0003 1.0415ZM15.4424 4.5578C15.6864 4.80188 15.6864 5.1976 15.4424 5.44168L15.1563 5.72773C14.9122 5.97181 14.5165 5.97181 14.2724 5.72773C14.0284 5.48366 14.0284 5.08793 14.2724 4.84385L14.5585 4.5578C14.8026 4.31372 15.1983 4.31372 15.4424 4.5578ZM4.55838 4.5579C4.80246 4.31382 5.19819 4.31382 5.44227 4.5579L5.72832 4.84395C5.9724 5.08802 5.9724 5.48375 5.72832 5.72783C5.48424 5.97191 5.08851 5.97191 4.84443 5.72783L4.55838 5.44178C4.31431 5.1977 4.31431 4.80197 4.55838 4.5579ZM9.95341 6.56821C9.80656 6.75997 9.63412 7.06599 9.36005 7.55764L9.22351 7.80258C9.21344 7.82065 9.20324 7.83912 9.19287 7.8579C9.07682 8.06803 8.93926 8.31711 8.71362 8.4884C8.48427 8.66251 8.20701 8.72401 7.97931 8.77451C7.95908 8.779 7.93925 8.7834 7.91987 8.78778L7.65472 8.84777C7.12106 8.96852 6.79373 9.04442 6.57774 9.12954C6.53141 9.14779 6.49859 9.16327 6.47579 9.17545C6.48803 9.20252 6.50837 9.24134 6.54184 9.29452C6.67103 9.49974 6.89594 9.76523 7.2587 10.1894L7.43946 10.4008C7.45256 10.4161 7.46592 10.4316 7.47949 10.4474C7.63655 10.6297 7.81936 10.8419 7.90374 11.1133C7.98735 11.3821 7.95931 11.6613 7.93486 11.905C7.93274 11.9261 7.93065 11.9469 7.92866 11.9674L7.90133 12.2495C7.84657 12.8146 7.81364 13.1702 7.82468 13.418C7.82681 13.4658 7.83039 13.5027 7.83428 13.5307C7.85416 13.5263 7.8782 13.5203 7.90694 13.5121C8.12954 13.4483 8.4374 13.3085 8.93713 13.0784L9.18538 12.9641C9.20371 12.9557 9.22245 12.947 9.2416 12.938C9.45264 12.8397 9.71279 12.7185 10.0003 12.7185C10.2879 12.7185 10.548 12.8397 10.759 12.938C10.7782 12.947 10.7969 12.9557 10.8153 12.9641L11.0635 13.0784C11.5633 13.3085 11.8711 13.4483 12.0937 13.5121C12.1225 13.5203 12.1465 13.5263 12.1664 13.5307C12.1703 13.5027 12.1738 13.4658 12.176 13.418C12.187 13.1702 12.1541 12.8146 12.0993 12.2494L12.072 11.9674C12.07 11.9469 12.0679 11.9261 12.0658 11.905C12.0413 11.6613 12.0133 11.3821 12.0969 11.1133C12.1813 10.8419 12.3641 10.6297 12.5212 10.4474C12.5347 10.4316 12.5481 10.4161 12.5612 10.4008L12.742 10.1894C13.1047 9.76523 13.3296 9.49974 13.4588 9.29452C13.4923 9.24134 13.5126 9.20252 13.5249 9.17545C13.5021 9.16327 13.4692 9.14779 13.4229 9.12954C13.2069 9.04442 12.8796 8.96852 12.3459 8.84777L12.0808 8.78778C12.0614 8.7834 12.0416 8.779 12.0213 8.77451C11.7936 8.72401 11.5164 8.66251 11.287 8.4884C11.0614 8.31711 10.9238 8.06802 10.8078 7.85789C10.7974 7.83911 10.7872 7.82065 10.7771 7.80258L10.6406 7.55764C10.3665 7.06599 10.1941 6.75997 10.0472 6.56821C10.0295 6.54507 10.0139 6.52593 10.0003 6.51014C9.98674 6.52593 9.97113 6.54507 9.95341 6.56821ZM13.5715 9.20634C13.5711 9.20639 13.5687 9.2045 13.5654 9.20051C13.5702 9.20428 13.5719 9.20628 13.5715 9.20634ZM13.5413 9.13147C13.5415 9.12658 13.5421 9.12382 13.5424 9.12366C13.5427 9.1235 13.5427 9.12595 13.5413 9.13147ZM12.1481 13.6088C12.148 13.6086 12.1488 13.6066 12.1507 13.6032C12.1492 13.6073 12.1482 13.609 12.1481 13.6088ZM12.2412 13.5417C12.2456 13.541 12.2481 13.541 12.2483 13.5412C12.2485 13.5414 12.2463 13.5418 12.2412 13.5417ZM7.75234 13.5412C7.75252 13.541 7.75505 13.541 7.75941 13.5417C7.75435 13.5418 7.75216 13.5414 7.75234 13.5412ZM7.84991 13.6032C7.85186 13.6066 7.85262 13.6086 7.85252 13.6088C7.85242 13.609 7.85145 13.6073 7.84991 13.6032ZM6.45821 9.12366C6.45852 9.12381 6.4592 9.12657 6.45936 9.13147C6.45799 9.12595 6.45791 9.1235 6.45821 9.12366ZM6.4353 9.20051C6.43193 9.20451 6.42951 9.20639 6.42914 9.20634C6.42877 9.20628 6.43046 9.20428 6.4353 9.20051ZM8.96099 5.80821C9.17696 5.52618 9.50334 5.20817 10.0003 5.20817C10.4973 5.20817 10.8237 5.52618 11.0397 5.80821C11.2489 6.08144 11.4654 6.46992 11.7098 6.90846L11.869 7.19395C11.9486 7.33681 11.9914 7.41268 12.0268 7.46594C12.0339 7.47653 12.0394 7.48432 12.0435 7.48987C12.0487 7.49177 12.0556 7.49412 12.0644 7.4969C12.1214 7.51487 12.2012 7.53344 12.3566 7.5686L12.668 7.63904C13.1406 7.74592 13.5646 7.8418 13.8812 7.96658C14.2199 8.10006 14.5953 8.32747 14.7399 8.79247C14.8824 9.25065 14.7106 9.65239 14.5167 9.96045C14.3326 10.2528 14.0455 10.5885 13.7217 10.967L13.5112 11.2132C13.4057 11.3365 13.3502 11.4022 13.3129 11.4535C13.3017 11.4689 13.2951 11.4792 13.2914 11.4852C13.2909 11.4929 13.2903 11.5064 13.2908 11.5281C13.2921 11.5941 13.3003 11.6828 13.3162 11.8469L13.3479 12.1739C13.397 12.6803 13.4402 13.1261 13.4247 13.4736C13.4087 13.8324 13.3251 14.271 12.9386 14.5644C12.5419 14.8655 12.0944 14.8126 11.7494 14.7137C11.423 14.6202 11.0265 14.4376 10.5841 14.2339L10.5407 14.2139L10.2925 14.0996C10.147 14.0326 10.0717 13.9985 10.0153 13.9779C10.0095 13.9758 10.0045 13.9741 10.0003 13.9727C9.99611 13.9741 9.99115 13.9758 9.98538 13.9779C9.92894 13.9985 9.85362 14.0326 9.70817 14.0996L9.41652 14.2339C8.97414 14.4376 8.5776 14.6202 8.25125 14.7137C7.90623 14.8126 7.45874 14.8655 7.06207 14.5644C6.67559 14.271 6.59191 13.8324 6.57592 13.4736C6.56044 13.1261 6.60368 12.6803 6.65279 12.1739L6.68448 11.8469C6.70038 11.6828 6.70855 11.5941 6.70988 11.5281C6.71032 11.5064 6.70979 11.4929 6.70923 11.4852C6.70557 11.4792 6.69896 11.4689 6.68778 11.4535C6.65044 11.4022 6.59492 11.3365 6.48946 11.2132L6.27894 10.967C5.95515 10.5885 5.66805 10.2528 5.48399 9.96045C5.29007 9.65239 5.11829 9.25065 5.26077 8.79247C5.40538 8.32747 5.78073 8.10006 6.11943 7.96658C6.43608 7.8418 6.86004 7.74592 7.3327 7.63904C7.34804 7.63557 7.36343 7.63209 7.37887 7.62859L7.64402 7.5686C7.79941 7.53344 7.87923 7.51487 7.93623 7.4969C7.94504 7.49412 7.95191 7.49177 7.95712 7.48987C7.96125 7.48432 7.96679 7.47653 7.97384 7.46594C8.00926 7.41268 8.05206 7.33681 8.13169 7.19395L8.26823 6.94901C8.27579 6.93545 8.28333 6.92193 8.29083 6.90846C8.53524 6.46992 8.75175 6.08144 8.96099 5.80821ZM6.70861 11.4787C6.70841 11.4777 6.70834 11.4772 6.70835 11.4771L6.70861 11.4787ZM12.0529 7.50165C12.0529 7.50167 12.0533 7.50207 12.0529 7.50165V7.50165ZM1.04199 9.99984C1.04199 9.65466 1.32181 9.37484 1.66699 9.37484H3.33366C3.67884 9.37484 3.95866 9.65466 3.95866 9.99984C3.95866 10.345 3.67884 10.6248 3.33366 10.6248H1.66699C1.32181 10.6248 1.04199 10.345 1.04199 9.99984ZM16.042 9.99984C16.042 9.65466 16.3218 9.37484 16.667 9.37484H18.3337C18.6788 9.37484 18.9587 9.65466 18.9587 9.99984C18.9587 10.345 18.6788 10.6248 18.3337 10.6248H16.667C16.3218 10.6248 16.042 10.345 16.042 9.99984ZM5.72822 14.2719C5.9723 14.516 5.9723 14.9117 5.72822 15.1558L5.44235 15.4417C5.19827 15.6858 4.80254 15.6858 4.55847 15.4417C4.31439 15.1976 4.31439 14.8019 4.55847 14.5578L4.84434 14.2719C5.08842 14.0279 5.48414 14.0279 5.72822 14.2719ZM14.2724 14.2721C14.5165 14.028 14.9122 14.028 15.1563 14.2721L15.4422 14.558C15.6862 14.8021 15.6862 15.1978 15.4422 15.4419C15.1981 15.686 14.8024 15.686 14.5583 15.4419L14.2724 15.156C14.0283 14.9119 14.0283 14.5162 14.2724 14.2721ZM10.0003 16.0415C10.3455 16.0415 10.6253 16.3213 10.6253 16.6665V18.3332C10.6253 18.6783 10.3455 18.9582 10.0003 18.9582C9.65515 18.9582 9.37533 18.6783 9.37533 18.3332V16.6665C9.37533 16.3213 9.65515 16.0415 10.0003 16.0415Z" fill="#F97316"/>
</svg>
