<svg width="48" height="48" viewBox="0 0 48 48" fill="none" xmlns="http://www.w3.org/2000/svg">
<rect x="21.7657" y="47.6071" width="33.7865" height="33.7865" rx="16.8932" transform="rotate(-130.107 21.7657 47.6071)" fill="#111827"/>
<path d="M16.5378 29.9251C16.3574 29.7109 16.2694 29.4339 16.2933 29.1549C16.3172 28.8759 16.451 28.6178 16.6651 28.4374L27.637 19.196L20.2579 18.5643C20.1163 18.5572 19.9775 18.5216 19.85 18.4598C19.7224 18.3979 19.6086 18.3109 19.5154 18.2041C19.4221 18.0973 19.3513 17.9728 19.3073 17.838C19.2632 17.7033 19.2467 17.561 19.2588 17.4197C19.2709 17.2785 19.3113 17.1411 19.3777 17.0158C19.444 16.8904 19.5349 16.7798 19.645 16.6904C19.755 16.601 19.8819 16.5346 20.0182 16.4953C20.1544 16.456 20.2971 16.4446 20.4379 16.4616L30.356 17.3108C30.6348 17.3348 30.8926 17.4685 31.0729 17.6825C31.2531 17.8965 31.3411 18.1733 31.3174 18.4521L30.4682 28.3702C30.4611 28.5119 30.4256 28.6506 30.3637 28.7782C30.3018 28.9057 30.2149 29.0195 30.1081 29.1128C30.0012 29.206 29.8767 29.2768 29.742 29.3209C29.6072 29.3649 29.4649 29.3814 29.3237 29.3693C29.1824 29.3572 29.045 29.3168 28.9197 29.2505C28.7944 29.1841 28.6837 29.0932 28.5943 28.9832C28.5049 28.8731 28.4386 28.7462 28.3993 28.61C28.36 28.4737 28.3485 28.331 28.3656 28.1902L28.9973 20.8111L18.0255 30.0525C17.8113 30.2329 17.5342 30.3208 17.2552 30.2969C16.9762 30.273 16.7182 30.1393 16.5378 29.9251Z" fill="white"/>
<svg width="39" height="39" viewBox="0 0 39 39" fill="none" xmlns="http://www.w3.org/2000/svg">
<rect x="17.5589" y="38.4058" width="27.2564" height="27.2564" rx="13.6282" transform="rotate(-130.107 17.5589 38.4058)" fill="#F97316"/>
<path d="M13.3423 24.1414C13.1968 23.9686 13.1258 23.7451 13.1451 23.52C13.1644 23.295 13.2723 23.0868 13.4451 22.9412L22.2963 15.486L16.3434 14.9764C16.2292 14.9706 16.1173 14.942 16.0143 14.892C15.9114 14.8421 15.8196 14.772 15.7444 14.6858C15.6692 14.5996 15.6121 14.4992 15.5765 14.3905C15.541 14.2818 15.5277 14.167 15.5374 14.053C15.5472 13.9391 15.5798 13.8282 15.6333 13.7271C15.6868 13.626 15.7602 13.5368 15.8489 13.4646C15.9377 13.3925 16.0401 13.339 16.15 13.3073C16.2599 13.2756 16.3751 13.2663 16.4886 13.2801L24.4899 13.9651C24.7147 13.9845 24.9227 14.0924 25.0681 14.265C25.2135 14.4377 25.2845 14.661 25.2654 14.8859L24.5804 22.8871C24.5746 23.0013 24.5459 23.1132 24.496 23.2162C24.4461 23.3191 24.376 23.4109 24.2898 23.4861C24.2036 23.5613 24.1032 23.6184 23.9945 23.654C23.8857 23.6895 23.771 23.7028 23.657 23.6931C23.543 23.6833 23.4322 23.6507 23.3311 23.5972C23.23 23.5437 23.1408 23.4703 23.0686 23.3815C22.9965 23.2928 22.943 23.1904 22.9113 23.0805C22.8796 22.9706 22.8703 22.8554 22.8841 22.7419L23.3937 16.789L14.5425 24.2442C14.3697 24.3897 14.1462 24.4606 13.9211 24.4414C13.696 24.4221 13.4878 24.3142 13.3423 24.1414Z" fill="white"/>
</svg>
