<svg width="39" height="39" viewBox="0 0 39 39" fill="none" xmlns="http://www.w3.org/2000/svg">
<rect x="17.5589" y="38.4058" width="27.2564" height="27.2564" rx="13.6282" transform="rotate(-130.107 17.5589 38.4058)" fill="#F97316"/>
<path d="M13.3423 24.1414C13.1968 23.9686 13.1258 23.7451 13.1451 23.52C13.1644 23.295 13.2723 23.0868 13.4451 22.9412L22.2963 15.486L16.3434 14.9764C16.2292 14.9706 16.1173 14.942 16.0143 14.892C15.9114 14.8421 15.8196 14.772 15.7444 14.6858C15.6692 14.5996 15.6121 14.4992 15.5765 14.3905C15.541 14.2818 15.5277 14.167 15.5374 14.053C15.5472 13.9391 15.5798 13.8282 15.6333 13.7271C15.6868 13.626 15.7602 13.5368 15.8489 13.4646C15.9377 13.3925 16.0401 13.339 16.15 13.3073C16.2599 13.2756 16.3751 13.2663 16.4886 13.2801L24.4899 13.9651C24.7147 13.9845 24.9227 14.0924 25.0681 14.265C25.2135 14.4377 25.2845 14.661 25.2654 14.8859L24.5804 22.8871C24.5746 23.0013 24.5459 23.1132 24.496 23.2162C24.4461 23.3191 24.376 23.4109 24.2898 23.4861C24.2036 23.5613 24.1032 23.6184 23.9945 23.654C23.8857 23.6895 23.771 23.7028 23.657 23.6931C23.543 23.6833 23.4322 23.6507 23.3311 23.5972C23.23 23.5437 23.1408 23.4703 23.0686 23.3815C22.9965 23.2928 22.943 23.1904 22.9113 23.0805C22.8796 22.9706 22.8703 22.8554 22.8841 22.7419L23.3937 16.789L14.5425 24.2442C14.3697 24.3897 14.1462 24.4606 13.9211 24.4414C13.696 24.4221 13.4878 24.3142 13.3423 24.1414Z" fill="white"/>
</svg>
