<svg width="48" height="48" viewBox="0 0 48 48" fill="none" xmlns="http://www.w3.org/2000/svg">
<rect x="21.7657" y="47.6071" width="33.7865" height="33.7865" rx="16.8932" transform="rotate(-130.107 21.7657 47.6071)" fill="#111827"/>
<path d="M16.5378 29.9251C16.3574 29.7109 16.2694 29.4339 16.2933 29.1549C16.3172 28.8759 16.451 28.6178 16.6651 28.4374L27.637 19.196L20.2579 18.5643C20.1163 18.5572 19.9775 18.5216 19.85 18.4598C19.7224 18.3979 19.6086 18.3109 19.5154 18.2041C19.4221 18.0973 19.3513 17.9728 19.3073 17.838C19.2632 17.7033 19.2467 17.561 19.2588 17.4197C19.2709 17.2785 19.3113 17.1411 19.3777 17.0158C19.444 16.8904 19.5349 16.7798 19.645 16.6904C19.755 16.601 19.8819 16.5346 20.0182 16.4953C20.1544 16.456 20.2971 16.4446 20.4379 16.4616L30.356 17.3108C30.6348 17.3348 30.8926 17.4685 31.0729 17.6825C31.2531 17.8965 31.3411 18.1733 31.3174 18.4521L30.4682 28.3702C30.4611 28.5119 30.4256 28.6506 30.3637 28.7782C30.3018 28.9057 30.2149 29.0195 30.1081 29.1128C30.0012 29.206 29.8767 29.2768 29.742 29.3209C29.6072 29.3649 29.4649 29.3814 29.3237 29.3693C29.1824 29.3572 29.045 29.3168 28.9197 29.2505C28.7944 29.1841 28.6837 29.0932 28.5943 28.9832C28.5049 28.8731 28.4386 28.7462 28.3993 28.61C28.36 28.4737 28.3485 28.331 28.3656 28.1902L28.9973 20.8111L18.0255 30.0525C17.8113 30.2329 17.5342 30.3208 17.2552 30.2969C16.9762 30.273 16.7182 30.1393 16.5378 29.9251Z" fill="white"/>
</svg>
