<svg width="35" height="35" viewBox="0 0 35 35" fill="none" xmlns="http://www.w3.org/2000/svg">
<path d="M17.5003 5.83335C17.5003 4.22252 18.8062 2.91669 20.417 2.91669C22.0278 2.91669 23.3337 4.22252 23.3337 5.83335C23.3337 7.44418 22.0278 8.75002 20.417 8.75002C18.8062 8.75002 17.5003 7.44418 17.5003 5.83335Z" fill="#1C274C"/>
<path d="M17.5003 14.5834C19.1112 14.5834 20.417 15.8892 20.417 17.5C20.417 19.1108 19.1112 20.4167 17.5003 20.4167C15.8895 20.4167 14.5837 19.1108 14.5837 17.5C14.5837 15.8892 15.8895 14.5834 17.5003 14.5834Z" fill="#1C274C"/>
<path d="M14.5837 26.25C16.1945 26.25 17.5003 27.5559 17.5003 29.1667C17.5003 30.7775 16.1945 32.0834 14.5837 32.0834C12.9728 32.0834 11.667 30.7775 11.667 29.1667C11.667 27.5559 12.9728 26.25 14.5837 26.25Z" fill="#1C274C"/>
<g opacity="0.5">
<path d="M20.205 18.5937C20.3417 18.256 20.417 17.8868 20.417 17.5C20.417 17.1132 20.3417 16.744 20.205 16.4062L27.7087 16.4062C28.3127 16.4062 28.8024 16.8959 28.8024 17.5C28.8024 18.104 28.3127 18.5937 27.7087 18.5937L20.205 18.5937Z" fill="#1C274C"/>
<path d="M14.7957 16.4062C14.6589 16.744 14.5837 17.1132 14.5837 17.5C14.5837 17.8868 14.6589 18.256 14.7957 18.5937H7.29199C6.68793 18.5937 6.19824 18.104 6.19824 17.5C6.19824 16.8959 6.68793 16.4062 7.29199 16.4062H14.7957Z" fill="#1C274C"/>
<path d="M17.2883 28.0729C17.425 28.4107 17.5003 28.7799 17.5003 29.1666C17.5003 29.5534 17.425 29.9226 17.2883 30.2604H27.7087C28.3127 30.2604 28.8024 29.7707 28.8024 29.1666C28.8024 28.5626 28.3127 28.0729 27.7087 28.0729H17.2883Z" fill="#1C274C"/>
<path d="M11.879 28.0729H7.29199C6.68793 28.0729 6.19824 28.5626 6.19824 29.1666C6.19824 29.7707 6.68793 30.2604 7.29199 30.2604H11.879C11.7423 29.9226 11.667 29.5534 11.667 29.1666C11.667 28.7799 11.7423 28.4107 11.879 28.0729Z" fill="#1C274C"/>
<path d="M23.1216 6.92706C23.2584 6.5893 23.3337 6.2201 23.3337 5.83331C23.3337 5.44653 23.2584 5.07733 23.1216 4.73956L27.7087 4.73956C28.3127 4.73956 28.8024 5.22925 28.8024 5.83331C28.8024 6.43738 28.3127 6.92706 27.7087 6.92706L23.1216 6.92706Z" fill="#1C274C"/>
<path d="M17.7123 6.92706C17.5756 6.5893 17.5003 6.2201 17.5003 5.83331C17.5003 5.44653 17.5756 5.07733 17.7123 4.73956L7.29199 4.73956C6.68793 4.73956 6.19824 5.22925 6.19824 5.83331C6.19824 6.43738 6.68793 6.92706 7.29199 6.92706L17.7123 6.92706Z" fill="#1C274C"/>
</g>
</svg>
