<svg width="18" height="22" viewBox="0 0 18 22" fill="none" xmlns="http://www.w3.org/2000/svg">
<path fill-rule="evenodd" clip-rule="evenodd" d="M7.75016 0C5.12681 0 3.00016 2.12665 3.00016 4.75C3.00016 7.37335 5.12681 9.5 7.75016 9.5C10.3735 9.5 12.5002 7.37335 12.5002 4.75C12.5002 2.12665 10.3735 0 7.75016 0ZM4.50016 4.75C4.50016 2.95507 5.95524 1.5 7.75016 1.5C9.54509 1.5 11.0002 2.95507 11.0002 4.75C11.0002 6.54493 9.54509 8 7.75016 8C5.95524 8 4.50016 6.54493 4.50016 4.75Z" fill="#4B5563"/>
<path d="M1.50016 15.75C1.50016 15.0307 2.01717 14.233 3.17252 13.5728C4.30665 12.9247 5.9235 12.5 7.75016 12.5C8.95075 12.5 10.0662 12.6837 11.0148 12.9972C11.4081 13.1272 11.8323 12.9138 11.9623 12.5205C12.0923 12.1272 11.8788 11.703 11.4856 11.573C10.3749 11.2059 9.09959 11 7.75016 11C5.71083 11 3.82768 11.4708 2.42831 12.2704C1.05016 13.0579 0.000163671 14.2601 0.000163671 15.75L8.30257e-05 15.8492C-0.00116152 16.875 -0.00277519 18.2051 1.1471 19.1563C1.71409 19.6254 2.50176 19.9543 3.55223 20.1703C4.60565 20.3869 5.97396 20.5 7.75016 20.5C8.10714 20.5 8.44717 20.4954 8.77105 20.4864C9.1851 20.4749 9.51141 20.1299 9.49987 19.7158C9.48834 19.3018 9.14333 18.9755 8.72928 18.987C8.42044 18.9956 8.09439 19 7.75016 19C6.02637 19 4.76968 18.8892 3.85435 18.701C2.93607 18.5122 2.41124 18.2553 2.10323 18.0005C1.54053 17.535 1.50016 16.9211 1.50016 15.75Z" fill="#4B5563"/>
<path fill-rule="evenodd" clip-rule="evenodd" d="M13.7502 14C11.6791 14 10.0002 15.6789 10.0002 17.75C10.0002 19.8211 11.6791 21.5 13.7502 21.5C15.8212 21.5 17.5002 19.8211 17.5002 17.75C17.5002 15.6789 15.8212 14 13.7502 14ZM14.7202 15.7193L11.7194 18.72C11.5789 18.4263 11.5002 18.0973 11.5002 17.75C11.5002 16.5074 12.5075 15.5 13.7502 15.5C14.0975 15.5 14.4265 15.5787 14.7202 15.7193ZM12.7801 19.7807C13.0738 19.9213 13.4028 20 13.7502 20C14.9928 20 16.0002 18.9926 16.0002 17.75C16.0002 17.4026 15.9214 17.0737 15.7809 16.7799L12.7801 19.7807Z" fill="#4B5563"/>
</svg>
