<svg width="13" height="16" viewBox="0 0 13 16" fill="none" xmlns="http://www.w3.org/2000/svg">
<path fill-rule="evenodd" clip-rule="evenodd" d="M0 6.39298C0 2.8713 2.80713 0 6.28997 0C9.77281 0 12.5799 2.8713 12.5799 6.39298C12.5799 8.09314 12.0954 9.91868 11.2389 11.4958C10.3834 13.071 9.13349 14.4398 7.5699 15.1706C6.75764 15.5503 5.82231 15.5503 5.01005 15.1706C3.44645 14.4398 2.19654 13.071 1.34106 11.4958C0.484528 9.91868 0 8.09314 0 6.39298ZM6.28997 1.07828C3.42062 1.07828 1.07828 3.44869 1.07828 6.39298C1.07828 7.90047 1.51149 9.55027 2.28862 10.9812C3.0668 12.4141 4.16649 13.5861 5.46663 14.1938C5.98953 14.4382 6.59042 14.4382 7.11332 14.1938C8.41345 13.5861 9.51314 12.4141 10.2913 10.9812C11.0685 9.55027 11.5017 7.90047 11.5017 6.39298C11.5017 3.44869 9.15933 1.07828 6.28997 1.07828ZM6.28997 4.67255C5.3967 4.67255 4.67255 5.3967 4.67255 6.28997C4.67255 7.18325 5.3967 7.9074 6.28997 7.9074C7.18325 7.9074 7.9074 7.18325 7.9074 6.28997C7.9074 5.3967 7.18325 4.67255 6.28997 4.67255ZM3.59427 6.28997C3.59427 4.80118 4.80118 3.59427 6.28997 3.59427C7.77877 3.59427 8.98568 4.80118 8.98568 6.28997C8.98568 7.77877 7.77877 8.98568 6.28997 8.98568C4.80118 8.98568 3.59427 7.77877 3.59427 6.28997Z" fill="#727477"/>
</svg>
