<svg width="17" height="17" viewBox="0 0 17 17" fill="none" xmlns="http://www.w3.org/2000/svg">
<path fill-rule="evenodd" clip-rule="evenodd" d="M5.77134 4.09873e-07H6.60366C7.62935 -1.50575e-05 8.45609 -2.75318e-05 9.10631 0.087393C9.7814 0.178155 10.3498 0.372326 10.8012 0.823763C11.2527 1.2752 11.4468 1.84361 11.5376 2.51869C11.625 3.16891 11.625 3.99565 11.625 5.02135V11.25H12.2411C13.1435 11.25 13.875 11.9815 13.875 12.8839V12.9375C13.875 13.2482 14.1268 13.5 14.4375 13.5C14.7482 13.5 15 13.2482 15 12.9375V9.96793L13.9039 9.60255C13.2148 9.37286 12.75 8.728 12.75 8.00165V6.1875C12.75 5.25552 13.5055 4.5 14.4375 4.5H14.9939C14.9573 4.07265 14.7592 3.67451 14.4389 3.38738C14.4064 3.35824 14.3693 3.32828 14.2609 3.24159L13.3361 2.50174C13.0935 2.30767 13.0542 1.95369 13.2483 1.71111C13.4423 1.46852 13.7963 1.42919 14.0389 1.62326L14.9758 2.37279C15.0676 2.4462 15.1309 2.49684 15.1898 2.5497C15.7441 3.04659 16.0788 3.74295 16.1206 4.48619C16.125 4.56525 16.125 4.64631 16.125 4.76381V9.54938C16.1252 9.55805 16.1252 9.56675 16.125 9.57546V12.9375C16.125 13.8695 15.3695 14.625 14.4375 14.625C13.5055 14.625 12.75 13.8695 12.75 12.9375V12.8839C12.75 12.6029 12.5221 12.375 12.2411 12.375H11.625V15H11.8125C12.1232 15 12.375 15.2518 12.375 15.5625C12.375 15.8732 12.1232 16.125 11.8125 16.125H0.5625C0.25184 16.125 0 15.8732 0 15.5625C0 15.2518 0.25184 15 0.5625 15H0.75L0.75 5.02134C0.749984 3.99565 0.749972 3.16891 0.837392 2.51869C0.928155 1.84361 1.12232 1.2752 1.57376 0.823763C2.0252 0.372326 2.59361 0.178155 3.26869 0.087393C3.91891 -2.75318e-05 4.74565 -1.50575e-05 5.77134 4.09873e-07ZM1.875 15H10.5V5.0625C10.5 3.98594 10.4988 3.2351 10.4226 2.66859C10.3487 2.11826 10.2133 1.82683 10.0057 1.61926C9.79817 1.41169 9.50674 1.27635 8.95641 1.20236C8.3899 1.1262 7.63906 1.125 6.5625 1.125H5.8125C4.73594 1.125 3.9851 1.1262 3.41859 1.20236C2.86826 1.27635 2.57683 1.41169 2.36926 1.61926C2.16169 1.82683 2.02635 2.11826 1.95236 2.66859C1.87619 3.2351 1.875 3.98594 1.875 5.0625V15ZM15 8.78207V5.625H14.4375C14.1268 5.625 13.875 5.87684 13.875 6.1875V8.00165C13.875 8.24376 14.0299 8.45872 14.2596 8.53528L15 8.78207ZM5.02894 3C5.04009 3 5.05128 3 5.0625 3H7.3125C7.32372 3 7.33491 3 7.34606 3C7.67067 2.99996 7.9683 2.99992 8.21041 3.03248C8.47702 3.06832 8.75881 3.15266 8.99058 3.38442C9.22235 3.61619 9.30668 3.89798 9.34253 4.1646C9.37508 4.4067 9.37504 4.70433 9.375 5.02894V5.09606C9.37504 5.42067 9.37508 5.7183 9.34253 5.96041C9.30668 6.22702 9.22235 6.50881 8.99058 6.74058C8.75881 6.97235 8.47702 7.05668 8.21041 7.09253C7.9683 7.12508 7.67067 7.12504 7.34606 7.125C7.3349 7.125 7.32372 7.125 7.3125 7.125H5.0625C5.05128 7.125 5.0401 7.125 5.02894 7.125C4.70433 7.12504 4.4067 7.12508 4.16459 7.09253C3.89798 7.05668 3.61619 6.97235 3.38442 6.74058C3.15266 6.50881 3.06832 6.22702 3.03247 5.96041C2.99992 5.7183 2.99996 5.42067 3 5.09606C3 5.08491 3 5.07372 3 5.0625C3 5.05128 3 5.04009 3 5.02894C2.99996 4.70433 2.99992 4.4067 3.03247 4.1646C3.06832 3.89798 3.15266 3.61619 3.38442 3.38442C3.61619 3.15266 3.89798 3.06832 4.16459 3.03248C4.4067 2.99992 4.70433 2.99996 5.02894 3ZM4.17996 4.17988C4.18021 4.17968 4.18026 4.17958 4.17996 4.17988ZM4.18175 4.1789L4.17996 4.17988L4.1789 4.18175C4.17814 4.1832 4.17693 4.18569 4.17537 4.18947C4.16865 4.20581 4.15718 4.24208 4.14744 4.3145C4.12619 4.47254 4.125 4.69305 4.125 5.0625C4.125 5.43196 4.12619 5.65246 4.14744 5.8105C4.15718 5.88292 4.16865 5.91919 4.17537 5.93553C4.17693 5.93931 4.17814 5.9418 4.1789 5.94325L4.17993 5.94507L4.18175 5.94611C4.1832 5.94686 4.18569 5.94807 4.18947 5.94963C4.20581 5.95635 4.24208 5.96782 4.3145 5.97756C4.47254 5.99881 4.69305 6 5.0625 6H7.3125C7.68196 6 7.90246 5.99881 8.0605 5.97756C8.13292 5.96782 8.16919 5.95635 8.18553 5.94963C8.18931 5.94807 8.1918 5.94686 8.19325 5.94611L8.19507 5.94507L8.19611 5.94325C8.19686 5.9418 8.19808 5.93931 8.19963 5.93553C8.20635 5.91919 8.21782 5.88292 8.22756 5.8105C8.24881 5.65246 8.25 5.43196 8.25 5.0625C8.25 4.69305 8.24881 4.47254 8.22756 4.3145C8.21782 4.24208 8.20635 4.20581 8.19963 4.18947C8.19808 4.18569 8.19686 4.1832 8.19611 4.18175L8.19507 4.17993L8.19325 4.1789C8.1918 4.17814 8.18931 4.17693 8.18553 4.17537C8.16919 4.16865 8.13292 4.15718 8.0605 4.14744C7.90246 4.1262 7.68196 4.125 7.3125 4.125H5.0625C4.69305 4.125 4.47254 4.1262 4.3145 4.14744C4.24208 4.15718 4.20581 4.16865 4.18947 4.17537C4.18569 4.17693 4.1832 4.17814 4.18175 4.1789ZM4.17993 5.94507C4.17973 5.94482 4.17963 5.94477 4.17993 5.94507ZM8.19507 5.94507C8.19506 5.94509 8.19506 5.94509 8.19507 5.94507ZM8.19507 5.94507C8.19506 5.94509 8.19506 5.94509 8.19507 5.94507ZM3.75 11.8125C3.75 11.5018 4.00184 11.25 4.3125 11.25H8.0625C8.37316 11.25 8.625 11.5018 8.625 11.8125C8.625 12.1232 8.37316 12.375 8.0625 12.375H4.3125C4.00184 12.375 3.75 12.1232 3.75 11.8125Z" fill="#727477"/>
</svg>
