<svg width="106" height="74" viewBox="0 0 106 74" fill="none" xmlns="http://www.w3.org/2000/svg">
<path d="M79.2285 47.2285C67.7473 41.8028 63.6035 36.9785 63.6035 23.3118C63.6035 9.64512 71.416 1.10345 83.916 1.10345C96.416 1.10345 104.229 9.64512 104.229 23.3118C104.229 47.2285 97.9785 55.7701 72.9785 72.8535C79.2285 60.8951 79.2285 57.4785 79.2285 47.2285ZM16.7285 47.2285C5.24727 41.8028 1.10352 36.9785 1.10352 23.3118C1.10352 9.64512 8.91602 1.10345 21.416 1.10345C33.916 1.10345 41.7285 9.64512 41.7285 23.3118C41.7285 47.2285 35.4785 55.7701 10.4785 72.8535C16.7285 60.8951 16.7285 57.4785 16.7285 47.2285Z" stroke="#F97316" stroke-width="2.20696" stroke-linecap="round" stroke-linejoin="round"/>
</svg>
